<svg xmlns="http://www.w3.org/2000/svg" width="43.561" height="45.541" viewBox="0 0 43.561 45.541"><defs><style>.a{fill:#4563e5;}</style></defs><g transform="translate(-10.667)"><g transform="translate(10.667)"><g transform="translate(0)"><path class="a" d="M54.219,6.93a.99.99,0,0,0-.281-.7L48,.29a.978.978,0,0,0-.7-.282V0H22.547a.99.99,0,0,0-.99.99V17.828l-1.142.01a.99.99,0,0,0-.693.3l-8.77,8.892a.99.99,0,0,0-.285.693v11.87a.99.99,0,0,0,.3.708l3.877,3.8a.99.99,0,0,0,.693.282h.01a.99.99,0,0,0,.693-.3L17,43.3a4.917,4.917,0,0,0,2.687.792h.052a4.927,4.927,0,0,0,1.82-.37v.825a.99.99,0,0,0,.99.99H53.238a.99.99,0,0,0,.99-.99V6.93ZM48.288,3.38l2.56,2.56h-2.56ZM20.629,30.691a.99.99,0,0,0-.7.29l-2.1,2.1a2.975,2.975,0,0,1-2.948.747l-.562,1.9a4.95,4.95,0,0,0,4.911-1.246l1.812-1.812h.519v8.77a2.937,2.937,0,0,1-1.834.676,2.9,2.9,0,0,1-2.109-.848.9.9,0,0,0-.7-.284.99.99,0,0,0-.693.3l-.693.708-2.878-2.814V28.127L20.84,19.81l.717,0v3.952a.989.989,0,0,0,.236.641l2,2.039a.99.99,0,0,0,.7.29h5.973v.976a3.033,3.033,0,0,1-1.279,2.456,2.989,2.989,0,0,1-1.691.528H20.629Zm31.619,12.87H23.537V32.671H27.5a4.943,4.943,0,0,0,4.95-4.936v-1a1.986,1.986,0,0,0-1.98-1.98H24.9l-1.366-1.363V1.98H46.308V5.94a1.98,1.98,0,0,0,1.98,1.98h3.96V43.561Z" transform="translate(-10.667)"/></g></g><g transform="translate(25.517 5.94)"><rect class="a" width="1.98" height="1.98"/></g><g transform="translate(29.477 5.94)"><g transform="translate(0)"><rect class="a" width="1.98" height="1.98"/></g></g><g transform="translate(25.517 11.88)"><rect class="a" width="22.771" height="1.98"/></g><g transform="translate(25.517 17.82)"><rect class="a" width="22.771" height="1.98"/></g><g transform="translate(33.438 5.94)"><g transform="translate(0)"><rect class="a" width="9.9" height="1.98"/></g></g><g transform="translate(36.408 23.761)"><rect class="a" width="7.92" height="1.98"/></g><g transform="translate(46.308 23.761)"><g transform="translate(0)"><rect class="a" width="1.98" height="1.98"/></g></g><g transform="translate(36.408 29.701)"><rect class="a" width="7.92" height="1.98"/></g><g transform="translate(46.308 29.701)"><g transform="translate(0)"><rect class="a" width="1.98" height="1.98"/></g></g><g transform="translate(25.517 34.651)"><rect class="a" width="22.771" height="1.98"/></g></g></svg>