<svg xmlns="http://www.w3.org/2000/svg" width="47.014" height="51.996" viewBox="0 0 47.014 51.996"><defs><style>.a{fill:#4563e5;}</style></defs><g transform="translate(-0.499 0)"><path class="a" d="M49.117,77.382c-2.389-2.379-5.152-.152-5.152-.152V64.708a.761.761,0,1,0-1.523,0V78.3a41.512,41.512,0,0,1-5.193,3.563V59.318a1.9,1.9,0,0,1,1.9-1.9h1.392a1.9,1.9,0,0,1,1.9,1.9V61.59a.761.761,0,1,0,1.523,0V59.318a3.427,3.427,0,0,0-3.424-3.424H39.15a3.428,3.428,0,0,0-3.424,3.424v23.15a8,8,0,0,1-1.394.259V66.67a3.445,3.445,0,0,0-3.441-3.441H29.534a3.445,3.445,0,0,0-3.441,3.441v7.76l-1.394.74V72.588a3.1,3.1,0,0,0-3.1-3.1H19.558a3.1,3.1,0,0,0-3.1,3.1v6.956l-2.487,1.32-6.984,2A4.813,4.813,0,0,0,3.654,88.7L4.435,91.7a.762.762,0,1,0,1.474-.384l-.781-3.005a3.271,3.271,0,0,1,2.281-3.991L13.794,82.5l4.8,12.808a3.411,3.411,0,0,1-2.268,4.206l-4.825,1.1a3.158,3.158,0,0,1-3.773-2.3l-.979-3.769a.762.762,0,1,0-1.475.383l.98,3.769a4.672,4.672,0,0,0,4.526,3.517A37.338,37.338,0,0,0,16.662,101a4.693,4.693,0,0,0,3.553-5.547l16.693-4.087a9.606,9.606,0,0,0,3.789-1.9l8.124-6.675a3.613,3.613,0,0,0,.3-5.411ZM29.534,64.752h1.358a1.92,1.92,0,0,1,1.917,1.918v16.1l-4.806,0c-.442,0-.136-.3-.112-.315l1.384-1.121A7.24,7.24,0,0,0,31.782,77a3.02,3.02,0,0,0-4.165-3.372V66.67a1.92,1.92,0,0,1,1.917-1.918Zm-11.55,7.836a1.576,1.576,0,0,1,1.574-1.574H21.6a1.577,1.577,0,0,1,1.575,1.574v3.391l-5.193,2.756V72.588Zm29.871,9.029-8.124,6.675a8.065,8.065,0,0,1-3.184,1.594L19.73,94,15.208,81.933,28.12,75.079a1.5,1.5,0,0,1,2.169,1.62,5.758,5.758,0,0,1-1.973,3.444l-1.384,1.121A1.7,1.7,0,0,0,28,84.286l5.549,0h0a9.5,9.5,0,0,0,5.49-1.737l6.2-4.361a2.145,2.145,0,0,1,2.779.256,2.113,2.113,0,0,1-.173,3.17Zm0,0" transform="translate(-2.694 -50.218)"/><path class="a" d="M70.321,422.239a3,3,0,1,0-3,3A3,3,0,0,0,70.321,422.239Zm-4.478,0a1.477,1.477,0,1,1,1.477,1.477A1.479,1.479,0,0,1,65.844,422.239Zm0,0" transform="translate(-57.34 -376.663)"/><path class="a" d="M4.5,23.914,15.575,12.757l2.49,1.288a2.342,2.342,0,0,0,2.7-.393l6.027-5.8s-.166,2.98,2.343,2.98A2.346,2.346,0,0,0,31.48,8.487V2.343c0-.007,0-.015,0-.022A2.218,2.218,0,0,0,29.137,0H23.047A2.346,2.346,0,0,0,20.7,2.343a2.309,2.309,0,0,0,2.621,2.343l-4.6,4.426L16.2,7.8a2.334,2.334,0,0,0-2.74.43L1.177,20.613a2.346,2.346,0,0,0,.013,3.314A2.31,2.31,0,0,0,4.5,23.914ZM2.258,21.686,14.542,9.308a.693.693,0,0,1,.959-.15l3.011,1.557a.762.762,0,0,0,.878-.128l6.352-6.114a.762.762,0,0,0-.528-1.31H23.047a.82.82,0,0,1,0-1.64h6.091a.716.716,0,0,1,.819.815c0,.007,0,.013,0,.021V8.487a.82.82,0,0,1-1.64,0V6.06a.761.761,0,0,0-1.29-.549l-7.317,7.043a.819.819,0,0,1-.945.138l-2.987-1.545a.762.762,0,0,0-.891.14L3.422,22.841a.786.786,0,0,1-1.16,0,.821.821,0,0,1,0-1.159Zm0,0" transform="translate(0)"/></g></svg>