<svg xmlns="http://www.w3.org/2000/svg" width="37.218" height="40.098" viewBox="0 0 37.218 40.098"><defs><style>.a{fill:none;stroke:#4563e5;stroke-width:3px;}</style></defs><path class="a" d="M37.244,33.758a3.619,3.619,0,0,0,1.489-2.8,3.914,3.914,0,0,0-.972-2.594c-.053-.107-.1-.205-.143-.3l-.018-.1a1.164,1.164,0,0,1,.178-.892A3.908,3.908,0,0,0,38.3,24.78a2.709,2.709,0,0,0-.865-2.068,1.7,1.7,0,0,1-.366-1.632,3.438,3.438,0,0,0-.731-3.37c-.936-1.052-1.81-1.177-4.137-1.043-1.6.1-4.948.615-7.15.963-.9.143-1.685.267-1.926.285-1.132.116-1.355,0-1.462-.437a2.891,2.891,0,0,1,.437-1.159,19.12,19.12,0,0,0,1.293-3.192c.9-2.96.8-6.17-.241-8.042a2.913,2.913,0,0,0-2.345-1.7,3.547,3.547,0,0,0-2.487.7c-.3.357-.205,1.034-.553,2.389a26,26,0,0,1-1.07,3.745c-.669,1.48-3.54,4.021-5.082,5.385-.366.321-.678.6-.9.811a18.377,18.377,0,0,0-2.273,2.915,15.519,15.519,0,0,1-1.221,1.649,3.221,3.221,0,0,1-1.988.972.715.715,0,0,0-.713.713V36.887a.738.738,0,0,0,.74.74,14.05,14.05,0,0,1,5.92,1.052,15.408,15.408,0,0,0,4.137,1.079,85.637,85.637,0,0,0,10.039.722,44.432,44.432,0,0,0,5.046-.348c2.764-.321,5.724-.963,6.7-3.3a2.518,2.518,0,0,0-.045-2.113.7.7,0,0,1-.071-.232A.755.755,0,0,1,37.244,33.758Z" transform="translate(-3.014 -1.882)"/></svg>