<svg xmlns="http://www.w3.org/2000/svg" width="40.472" height="53.135" viewBox="0 0 40.472 53.135"><defs><style>.a{fill:#4563e5;}</style></defs><g transform="translate(-61.01)"><path class="a" d="M61.01,210v9.34h1.125L76.576,228v13.338l9.34-4.67V228l14.441-8.664h1.125V210Zm24.906,6.226v3.113h8.39l-11.5,6.9v8.507L79.689,236.3V226.241l-11.5-6.9h8.39v-3.113H64.123v-3.113H98.369v3.113Z" transform="translate(0 -188.207)"/><path class="a" d="M130.35,4.67a4.67,4.67,0,1,0-4.67,4.67A4.675,4.675,0,0,0,130.35,4.67Zm-4.67,1.557a1.557,1.557,0,1,1,1.557-1.557A1.558,1.558,0,0,1,125.68,6.226Z" transform="translate(-53.774)"/><path class="a" d="M106.576,97.783a7.783,7.783,0,0,0-15.566,0V99.34h15.566ZM94.39,96.226a4.67,4.67,0,0,1,8.806,0Z" transform="translate(-26.887 -80.66)"/><path class="a" d="M310.35,4.67a4.67,4.67,0,1,0-4.67,4.67A4.675,4.675,0,0,0,310.35,4.67Zm-4.67,1.557a1.557,1.557,0,1,1,1.557-1.557A1.558,1.558,0,0,1,305.68,6.226Z" transform="translate(-215.094)"/><path class="a" d="M286.576,97.783a7.783,7.783,0,1,0-15.566,0V99.34h15.566ZM274.39,96.226a4.67,4.67,0,0,1,8.806,0Z" transform="translate(-188.207 -80.66)"/></g></svg>