<svg xmlns="http://www.w3.org/2000/svg" width="33.168" height="53.064" viewBox="0 0 33.168 53.064"><defs><style>.a{fill:#4563e5;}</style></defs><g transform="translate(0)"><path class="a" d="M261.067,308.073a1.036,1.036,0,1,0-1.036-1.036A1.037,1.037,0,0,0,261.067,308.073Zm0,0" transform="translate(-233.081 -274.286)"/><path class="a" d="M.2,69.035A30.26,30.26,0,0,0,8.262,83.51l.033.034v4.338a1.036,1.036,0,0,0,1.036,1.036H27.987a1.036,1.036,0,0,0,1.036-1.036V83.424a25.717,25.717,0,0,0,4.146-14V61.349a4.143,4.143,0,0,0-6.452-3.443A4.142,4.142,0,0,0,20.5,55.834a4.146,4.146,0,0,0-5.985-2.221V44.145a4.146,4.146,0,1,0-8.291,0V59.067L3.39,60.955A7.65,7.65,0,0,0,.2,69.035ZM4.54,62.68l1.682-1.122V68.6a1.036,1.036,0,1,0,2.073,0V44.145a2.073,2.073,0,1,1,4.146,0V64.459a1.036,1.036,0,0,0,2.073,0V57.2a2.073,2.073,0,1,1,4.146,0v7.255a1.036,1.036,0,0,0,2.073,0V59.277a2.073,2.073,0,0,1,4.146,0v5.182a1.036,1.036,0,0,0,2.073,0V61.349a2.073,2.073,0,0,1,4.146,0v8.073a23.644,23.644,0,0,1-3.972,13.117,1.038,1.038,0,0,0-.174.575v3.731H10.368V83.114a1.036,1.036,0,0,0-.3-.733,28.242,28.242,0,0,1-7.846-13.82A5.569,5.569,0,0,1,4.54,62.68Zm0,0" transform="translate(0 -35.854)"/><path class="a" d="M227.212,355.89a1.036,1.036,0,0,0,1.437-.287,21.387,21.387,0,0,0,3.342-8.481,1.037,1.037,0,0,0-2.046-.334,19.321,19.321,0,0,1-3.02,7.665A1.036,1.036,0,0,0,227.212,355.89Zm0,0" transform="translate(-203.25 -310.067)"/><path class="a" d="M21.068,9.328A1.036,1.036,0,0,0,22.1,8.291a6.218,6.218,0,1,1,12.437,0,1.036,1.036,0,0,0,2.073,0,8.291,8.291,0,1,0-16.583,0A1.036,1.036,0,0,0,21.068,9.328Zm0,0" transform="translate(-17.955)"/></g></svg>