<svg xmlns="http://www.w3.org/2000/svg" width="68.328" height="49.853" viewBox="0 0 68.328 49.853"><defs><style>.a{fill:#4563e5;}</style></defs><g transform="translate(0 -69.642)"><path class="a" d="M0,0H11.672V7.53H0Z" transform="translate(41.368 103.467) rotate(-70.007)"/><path class="a" d="M393.282,282.557c5.921,2.153,5.707,2.125,6.194,2.125a1.99,1.99,0,0,0,1.87-1.309l3.309-9.1-7.385-2.685Z" transform="translate(-341.117 -175.16)"/><path class="a" d="M0,0H11.673V7.53H0Z" transform="translate(46.717 88.754) rotate(-70.007)"/><path class="a" d="M443.114,162.693l-5.514-2.005-3.988,10.971L441,174.342l3.309-9.1A1.99,1.99,0,0,0,443.114,162.693Z" transform="translate(-376.098 -78.969)"/><path class="a" d="M165.52,105.76l12.163-33.448a1.99,1.99,0,0,0-3.74-1.36L163.4,99.938l-10.54-28.986a1.99,1.99,0,1,0-3.74,1.36l12.163,33.448-4.024,11.065a1.99,1.99,0,0,0,3.74,1.36l2.4-6.6,2.4,6.6a1.99,1.99,0,0,0,3.74-1.36Z" transform="translate(-129.239)"/><path class="a" d="M0,0H7.53V11.672H0Z" transform="translate(15.926 95.07) rotate(-19.993)"/><path class="a" d="M36.106,274.272l3.309,9.1a1.991,1.991,0,0,0,2.549,1.19l5.515-2.005-3.988-10.969Z" transform="translate(-31.317 -175.159)"/><path class="a" d="M0,0H7.53V11.673H0Z" transform="translate(10.572 80.358) rotate(-19.993)"/><path class="a" d="M6.825,160.688l-5.514,2.006A1.99,1.99,0,0,0,.12,165.243l3.309,9.1,7.384-2.685Z" transform="translate(0 -78.97)"/></g></svg>