<svg xmlns="http://www.w3.org/2000/svg" width="50.083" height="49.393" viewBox="0 0 50.083 49.393"><defs><style>.a,.b{fill:#4563e5;}.b{stroke:#4563e5;stroke-width:0.5px;}</style></defs><g transform="translate(-210.947 -627.687)"><g transform="translate(-257 29.053)"><g transform="translate(467.947 621.027)"><path class="a" d="M48.517,237.586a4.4,4.4,0,0,0-6.059.366l-4.313,4.629a4.41,4.41,0,0,0-4.2-3.1h-7.7c-.584,0-.78-.223-1.794-1a10.292,10.292,0,0,0-13.532.032L8.091,241a4.384,4.384,0,0,0-4.035-.051L.811,242.573a1.468,1.468,0,0,0-.656,1.969l8.8,17.606a1.468,1.468,0,0,0,1.969.656l3.244-1.623a4.4,4.4,0,0,0,2.432-4.091H33.941a10.319,10.319,0,0,0,8.216-4.108l7.044-9.392A4.389,4.389,0,0,0,48.517,237.586ZM12.859,258.558l-1.932.966L3.436,244.542l1.933-.966a1.466,1.466,0,0,1,1.968.656l6.179,12.358A1.467,1.467,0,0,1,12.859,258.558ZM46.854,241.83l-7.043,9.392a7.37,7.37,0,0,1-5.869,2.934H15.579l-5.5-11,2.777-2.444a7.354,7.354,0,0,1,9.693,0c1.628,1.433,2.64,1.7,3.694,1.7h7.7a1.467,1.467,0,1,1,0,2.934H26.448a1.467,1.467,0,1,0,0,2.934h8.476a4.414,4.414,0,0,0,3.221-1.4l6.46-6.934a1.467,1.467,0,0,1,2.249,1.878Z" transform="translate(0 -235.959)"/></g></g><g transform="translate(212.795 621.523)"><path class="b" d="M39.937,28.953a11.27,11.27,0,1,1,11.27-11.27A11.27,11.27,0,0,1,39.937,28.953Zm0-21.276A10.006,10.006,0,1,0,49.942,17.683,10.006,10.006,0,0,0,39.937,7.677Z" transform="translate(-9.815)"/><path class="b" d="M44.545,21.211a3.466,3.466,0,1,1,3.574-3.464.632.632,0,1,1-1.264,0,2.314,2.314,0,1,0-2.31,2.2.632.632,0,1,1,0,1.264Z" transform="translate(-14.423 -2.896)"/><path class="b" d="M44.418,30.173a3.524,3.524,0,0,1-3.574-3.464.632.632,0,1,1,1.264,0,2.314,2.314,0,1,0,2.31-2.2.632.632,0,1,1,0-1.264,3.466,3.466,0,1,1,0,6.928Z" transform="translate(-14.296 -6.194)"/><path class="b" d="M46.132,27.318a.632.632,0,0,1-.632-.632V13.232a.632.632,0,1,1,1.264,0V26.686A.632.632,0,0,1,46.132,27.318Z" transform="translate(-16.01 -2.277)"/></g></g></svg>