<svg xmlns="http://www.w3.org/2000/svg" width="50.083" height="50.081" viewBox="0 0 50.083 50.081"><defs><style>.a{fill:#4563e5;}</style></defs><g transform="translate(-464.947 -635.947)"><g transform="translate(464.947 659.027)"><g transform="translate(0)"><path class="a" d="M48.517,237.586a4.4,4.4,0,0,0-6.059.366l-4.313,4.629a4.41,4.41,0,0,0-4.2-3.1h-7.7c-.584,0-.78-.223-1.794-1a10.292,10.292,0,0,0-13.532.032L8.091,241a4.384,4.384,0,0,0-4.035-.051L.811,242.573a1.468,1.468,0,0,0-.656,1.969l8.8,17.606a1.468,1.468,0,0,0,1.969.656l3.244-1.623a4.4,4.4,0,0,0,2.432-4.091H33.941a10.319,10.319,0,0,0,8.216-4.108l7.044-9.392A4.389,4.389,0,0,0,48.517,237.586ZM12.859,258.558l-1.932.966L3.436,244.542l1.933-.966a1.466,1.466,0,0,1,1.968.656l6.179,12.358A1.467,1.467,0,0,1,12.859,258.558ZM46.854,241.83l-7.043,9.392a7.37,7.37,0,0,1-5.869,2.934H15.579l-5.5-11,2.777-2.444a7.354,7.354,0,0,1,9.693,0c1.628,1.433,2.64,1.7,3.694,1.7h7.7a1.467,1.467,0,1,1,0,2.934H26.448a1.467,1.467,0,1,0,0,2.934h8.476a4.414,4.414,0,0,0,3.221-1.4l6.46-6.934a1.467,1.467,0,0,1,2.249,1.878Z" transform="translate(0 -235.959)"/></g></g><g transform="translate(482.652 635.947)"><path class="a" d="M194.14,10.025a5.845,5.845,0,0,0,1.624-4.046A5.949,5.949,0,0,0,189.895.013a6.046,6.046,0,0,0-5.967,5.967,5.76,5.76,0,0,0,1.677,4.057,8.951,8.951,0,0,0-4.612,7.778v1.467a1.468,1.468,0,0,0,1.467,1.467h14.77a1.468,1.468,0,0,0,1.467-1.467V17.815A8.944,8.944,0,0,0,194.14,10.025Zm-4.245-7.078a3.025,3.025,0,0,1,2.934,3.032,2.938,2.938,0,0,1-2.934,2.934,3.025,3.025,0,0,1-3.032-2.934A3.112,3.112,0,0,1,189.895,2.947Zm-5.967,14.867a6.046,6.046,0,0,1,5.967-5.967,5.925,5.925,0,0,1,5.869,5.967Z" transform="translate(-180.994 -0.013)"/></g></g></svg>