<svg xmlns="http://www.w3.org/2000/svg" width="37.241" height="46.696" viewBox="0 0 37.241 46.696"><defs><style>.a{fill:#4563e5;}</style></defs><g transform="translate(-59.812 -10)"><path class="a" d="M126.664,15.9V14.375a4.375,4.375,0,1,0-8.751,0V15.9a4.375,4.375,0,1,0,8.751,0Zm-7.612,0V14.375a3.236,3.236,0,1,1,6.473,0V15.9a3.236,3.236,0,1,1-6.473,0Z" transform="translate(-52.587)"/><path class="a" d="M75.79,125.472c-.106-.011-1.278-.018-3.484-.023h0a.569.569,0,0,0-.494.286l-1.964,3.422-1.859-3.411a.569.569,0,0,0-.5-.3H64.336a4.524,4.524,0,0,0-4.524,4.524c0,.132.019,9.344.02,9.735a2.672,2.672,0,0,0,2.669,2.669h.03a2.612,2.612,0,0,0,1.552-.535l.524,17.728c0,.013,0,.026,0,.039a1.745,1.745,0,0,0,1.743,1.58h7.022a1.744,1.744,0,0,0,1.743-1.584c0-.013,0-.026,0-.039l.488-17.691a2.67,2.67,0,0,0,4.229-2.168V130.4A4.524,4.524,0,0,0,75.79,125.472Zm2.912,4.842a.554.554,0,0,0,0,.057v9.334a1.532,1.532,0,1,1-3.063.055V139.7a.569.569,0,0,0-.569-.56h0a.569.569,0,0,0-.565.569c0,.028,0,.056,0,.083l.011.675-.525,19.046a.61.61,0,0,1-.607.537H66.353a.61.61,0,0,1-.607-.536l-.563-19.053-.012-.819a.569.569,0,0,0-.569-.561h0a.569.569,0,0,0-.565.569,1.565,1.565,0,0,1-1.506,1.588H62.5a1.532,1.532,0,0,1-1.53-1.531c0-.1-.02-9.6-.02-9.734a3.385,3.385,0,0,1,3.385-3.385H67.15l2.184,4.009a.569.569,0,0,0,.994.011l2.305-4.019c1.205,0,2.863.009,3.052.018A3.388,3.388,0,0,1,78.7,130.314Z" transform="translate(0 -104.492)"/><path class="a" d="M350.393,148.525a.569.569,0,0,0-.569.569v1.266h-6.679v-6.679h6.679v.419a.569.569,0,0,0,1.139,0v-.989a.569.569,0,0,0-.569-.569h-7.818a.569.569,0,0,0-.569.569v7.818a.569.569,0,0,0,.569.569h7.818a.569.569,0,0,0,.569-.569v-1.836A.569.569,0,0,0,350.393,148.525Z" transform="translate(-255.411 -119.963)"/><path class="a" d="M383.567,164.967l-4.309,3.244-.809-1.492a.569.569,0,0,0-1,.543l1.124,2.073a.569.569,0,0,0,.843.184l4.837-3.641a.569.569,0,1,0-.685-.91Z" transform="translate(-287.427 -140.155)"/><path class="a" d="M350.393,12.128a.569.569,0,0,0,.569-.569v-.989a.569.569,0,0,0-.569-.569h-7.818a.569.569,0,0,0-.569.569v7.818a.569.569,0,0,0,.569.569h7.818a.569.569,0,0,0,.569-.569V16.552a.569.569,0,1,0-1.139,0v1.266h-6.679V11.139h6.679v.419A.569.569,0,0,0,350.393,12.128Z" transform="translate(-255.411)"/><path class="a" d="M383.567,32.42l-4.309,3.244-.809-1.492a.569.569,0,0,0-1,.543l1.124,2.073a.569.569,0,0,0,.843.184l4.837-3.641a.569.569,0,1,0-.685-.91Z" transform="translate(-287.427 -20.188)"/><path class="a" d="M350.393,275.086h-7.818a.569.569,0,0,0-.569.569v7.818a.569.569,0,0,0,.569.569h7.818a.569.569,0,0,0,.569-.569v-7.818A.569.569,0,0,0,350.393,275.086Zm-.569,7.818h-6.679v-6.679h6.679Z" transform="translate(-255.411 -239.927)"/><path class="a" d="M350.393,407.629h-7.818a.569.569,0,0,0-.569.569v7.818a.569.569,0,0,0,.569.569h7.818a.569.569,0,0,0,.569-.569V408.2A.569.569,0,0,0,350.393,407.629Zm-.569,7.818h-6.679v-6.679h6.679Z" transform="translate(-255.411 -359.89)"/></g></svg>