<svg xmlns="http://www.w3.org/2000/svg" width="57.825" height="50.529" viewBox="0 0 57.825 50.529"><defs><style>.a{fill:#4563e5;}</style></defs><g transform="translate(-2 -6.414)"><path class="a" d="M40.244,53.313H26.287a.826.826,0,0,1,0-1.652H40.244a2.158,2.158,0,0,0,1.535-.629c.037-.037.069-.073.1-.107a.788.788,0,0,1,.054-.073,2.148,2.148,0,0,0,.5-1.377,2.188,2.188,0,0,0-2.186-2.186h-7.8a.826.826,0,0,1-.611-.271,11.111,11.111,0,0,0-8.208-3.629H13.6a.826.826,0,1,1,0-1.652H23.626a12.769,12.769,0,0,1,9.178,3.9h7.44a3.842,3.842,0,0,1,3.838,3.836,3.8,3.8,0,0,1-.82,2.36.762.762,0,0,1-.07.1c-.083.093-.154.177-.239.262a3.813,3.813,0,0,1-2.709,1.123Z" transform="translate(-1.874 -6.143)"/><path class="a" d="M33.235,64.133a17.513,17.513,0,0,1-5.97-1.045L13.318,58.024a.826.826,0,1,1,.564-1.553L27.83,61.536a15.987,15.987,0,0,0,12.65-.785L59.4,51.086a7.663,7.663,0,0,0-7.377-1.223l-9.075,3.3a.807.807,0,0,1-.385.1A.826.826,0,0,1,42,51.83a.808.808,0,0,1,.284-.178l9.18-3.342a9.319,9.319,0,0,1,9.17,1.652l.78.676A.826.826,0,0,1,61.248,52L41.228,62.222A17.644,17.644,0,0,1,33.235,64.133Z" transform="translate(-1.874 -7.19)"/><path class="a" d="M11.723,58.88h-8.9A.826.826,0,0,1,2,58.053V40.066a.826.826,0,0,1,.826-.826h8.9a.826.826,0,0,1,.826.826V58.053A.826.826,0,0,1,11.723,58.88ZM3.652,57.227H10.9V40.892H3.652Z" transform="translate(0 -5.709)"/><path class="a" d="M43.4,35.878A14.732,14.732,0,1,1,58.131,21.146,14.732,14.732,0,0,1,43.4,35.878Zm0-27.812a13.08,13.08,0,1,0,13.08,13.08A13.08,13.08,0,0,0,43.4,8.065Z" transform="translate(-4.638)"/><path class="a" d="M45.576,23.34a4.53,4.53,0,1,1,4.672-4.528.826.826,0,1,1-1.652,0,3.024,3.024,0,1,0-3.02,2.876.826.826,0,1,1,0,1.652Z" transform="translate(-6.815 -1.368)"/><path class="a" d="M45.516,32.3a4.607,4.607,0,0,1-4.672-4.528.826.826,0,1,1,1.652,0,3.024,3.024,0,1,0,3.02-2.875.826.826,0,0,1,0-1.652,4.53,4.53,0,1,1,0,9.056Z" transform="translate(-6.755 -2.927)"/><path class="a" d="M46.326,31.839a.826.826,0,0,1-.826-.826V13.426a.826.826,0,0,1,1.652,0V31.013A.826.826,0,0,1,46.326,31.839Z" transform="translate(-7.565 -1.076)"/></g></svg>