<svg xmlns="http://www.w3.org/2000/svg" width="50.35" height="44.44" viewBox="0 0 50.35 44.44"><defs><style>.a{fill:#4563e5;}.b,.d{fill:none;}.b{stroke:#4563e5;stroke-width:1.5px;}.c{stroke:none;}</style></defs><g transform="translate(-6950 3573.411)"><path class="a" d="M73.116,49.95a.643.643,0,0,0-.866-.107L53.524,63.29a.643.643,0,0,0,.75,1.044l18.243-13.1,6.044,7.154a.643.643,0,0,0,.884.094l15.047-11.6,2.051,2.358a.643.643,0,0,0,1.126-.377l.38-5.453a.643.643,0,0,0-.6-.686L92,42.341a.643.643,0,0,0-.53,1.063l2.177,2.5-14.5,11.182Z" transform="translate(6899.383 -3615.751)"/><g transform="translate(6950 -3559.182)"><g class="b" transform="translate(18.309 8.239)"><rect class="c" width="13.732" height="21.971"/><rect class="d" x="0.75" y="0.75" width="12.232" height="20.471"/></g><g class="b" transform="translate(0 19.225)"><rect class="c" width="14.647" height="10.985"/><rect class="d" x="0.75" y="0.75" width="13.147" height="9.485"/></g><g class="b" transform="translate(35.703 0)"><rect class="c" width="14.647" height="30.21"/><rect class="d" x="0.75" y="0.75" width="13.147" height="28.71"/></g></g></g></svg>