<svg xmlns="http://www.w3.org/2000/svg" width="49.771" height="49.775" viewBox="0 0 49.771 49.775"><defs><style>.a{fill:#4563e5;}</style></defs><g transform="translate(-0.001 0)"><path class="a" d="M49.56,1.5A1.458,1.458,0,0,0,48.272.212c-11.54-1.282-21.377,3.335-29.4,11.595a60.163,60.163,0,0,0-5.988,7.281,11.579,11.579,0,0,0-8.329,3.447L.428,26.659A1.458,1.458,0,0,0,1.837,29.1a20.308,20.308,0,0,1,4.006-.625,11.262,11.262,0,0,1,1.377.011C6.31,30.236,5.612,31.7,5.381,32.07a1.459,1.459,0,0,0,.2,1.808l2.387,2.387C4.5,41,4.44,43.428,4.452,43.772a1.465,1.465,0,0,0,1.533,1.41c.814,0,3.149-.346,7.4-3.5L15.9,44.19a1.459,1.459,0,0,0,1.82.2c.393-.253,1.773-.921,3.428-1.786a35.623,35.623,0,0,1-.5,5.5,1.459,1.459,0,0,0,2.474,1.245l4.125-4.125a11.518,11.518,0,0,0,3.269-8.25,60.218,60.218,0,0,0,7.661-6.3C46.351,22.65,50.826,12.888,49.56,1.5ZM46.771,3a29.121,29.121,0,0,1-.739,9.142A12.842,12.842,0,0,1,40.892,8.88a12.827,12.827,0,0,1-3.269-5.159A29.4,29.4,0,0,1,46.771,3ZM5.653,25.559l.962-.963A9.209,9.209,0,0,1,10.8,22.218c-.786,1.248-1.487,2.44-2.106,3.54a11.713,11.713,0,0,0-3.04-.2Zm2.76,7.022c.316-.623.7-1.4,1.4-2.727l1.92,1.92q-1.071,1.15-1.94,2.184Zm7.131-.558a4.312,4.312,0,0,1,3.347-1.284,4.361,4.361,0,0,1-1.285,3.346c-4.527,4.527-7.631,6.549-9.487,7.451.916-1.892,2.943-5.032,7.424-9.514Zm1.64,9.329-1.5-1.5q1.03-.875,2.178-1.947L19.9,39.945c-1.344.717-1.9.987-2.718,1.408Zm7.993,1.805-1.167,1.168a14.232,14.232,0,0,0-.072-3.24c1.072-.6,2.237-1.288,3.458-2.054A8.6,8.6,0,0,1,25.176,43.158Zm-2.62-4.683-2.615-2.615c1.935-2.129,1.863-4.18,1.863-6.577a1.458,1.458,0,0,0-1.458-1.458c-2.239,0-4.394-.12-6.577,1.863l-2.5-2.5C18.09,15.236,25.971,7.667,34.826,4.55a15.706,15.706,0,0,0,4,6.393,15.714,15.714,0,0,0,6.363,3.995c-3.135,8.806-10.7,16.682-22.638,23.538Zm0,0" transform="translate(0 0)"/><path class="a" d="M262.638,113.966a7.292,7.292,0,1,0,0,10.312A7.3,7.3,0,0,0,262.638,113.966Zm-2.062,8.25a4.375,4.375,0,1,1,0-6.187A4.38,4.38,0,0,1,260.575,122.216Zm0,0" transform="translate(-225.87 -100.962)"/></g></svg>