<svg xmlns="http://www.w3.org/2000/svg" width="44.765" height="44.765" viewBox="0 0 44.765 44.765"><defs><style>.a{fill:#4563e5;}</style></defs><path class="a" d="M41.477,10.705l2.171-2.171A1.312,1.312,0,0,0,42.831,6.3L38.8,5.961l-.34-4.028a1.311,1.311,0,0,0-2.234-.817L34.059,3.287A22.383,22.383,0,0,0,6.555,38.21a22.383,22.383,0,0,0,34.923-27.5ZM36.283,7.285a1.312,1.312,0,0,0,1.2,1.2l2.317.2L36.66,11.813l-3.421-.289L32.951,8.1l3.137-3.137Zm-9.443,15.1a4.463,4.463,0,1,1-2.374-3.94l-3.012,3.013a1.311,1.311,0,1,0,1.855,1.854L26.321,20.3a4.429,4.429,0,0,1,.519,2.085Zm-.468-5.846a7.09,7.09,0,1,0,1.855,1.855l3.744-3.744a12.342,12.342,0,1,1-1.855-1.855Zm9.98,19.818A19.759,19.759,0,1,1,8.409,8.411,19.768,19.768,0,0,1,32.145,5.2L30.666,6.68a1.311,1.311,0,0,0-.384.894c0,.048,0,.1,0,.144l.177,2.093A14.963,14.963,0,1,0,34.954,14.3l2.093.177c.037,0,.074,0,.11,0h.019l.052,0c.028,0,.057,0,.085-.007l.052-.008.082-.016.052-.013.079-.024.051-.018c.026-.01.051-.021.076-.033l.048-.023c.025-.013.05-.027.074-.042l.044-.026c.026-.017.051-.036.076-.054l.035-.026a1.3,1.3,0,0,0,.1-.092l1.479-1.479a19.768,19.768,0,0,1-3.21,23.735Zm0,0" transform="translate(0.001 -0.001)"/></svg>