<svg xmlns="http://www.w3.org/2000/svg" width="50.511" height="44" viewBox="0 0 50.511 44"><defs><style>.a{fill:#4563e5;}</style></defs><g transform="translate(0 -33)"><path class="a" d="M177.583,50.166A8.583,8.583,0,1,0,169,41.583,8.593,8.593,0,0,0,177.583,50.166Zm0-14.206a5.623,5.623,0,1,1-5.623,5.623A5.63,5.63,0,0,1,177.583,35.96Z" transform="translate(-152.327)"/><path class="a" d="M382.426,107.852A5.426,5.426,0,1,0,377,102.426,5.432,5.432,0,0,0,382.426,107.852Zm0-7.892a2.466,2.466,0,1,1-2.466,2.466A2.469,2.469,0,0,1,382.426,99.96Z" transform="translate(-339.807 -57.686)"/><path class="a" d="M43.812,241H41.524a6.709,6.709,0,0,0-6.086,3.882,11.91,11.91,0,0,0-8.8-3.882H23.876a11.91,11.91,0,0,0-8.8,3.882A6.709,6.709,0,0,0,8.987,241H6.7A6.686,6.686,0,0,0,0,247.658v10.774a2.9,2.9,0,0,0,2.9,2.891h9.049a3.459,3.459,0,0,0,3.441,3.157H35.119a3.459,3.459,0,0,0,3.441-3.157h8.946a3,3,0,0,0,3.005-2.993V247.658a6.686,6.686,0,0,0-6.7-6.658ZM2.96,247.658a3.723,3.723,0,0,1,3.739-3.7H8.987a3.723,3.723,0,0,1,3.739,3.7v1.013c-1,2.591-.789,4.144-.789,9.692H2.96Zm32.655,13.367a.5.5,0,0,1-.5.5H15.392a.5.5,0,0,1-.5-.5v-8.085a8.99,8.99,0,0,1,8.98-8.98h2.758a8.99,8.99,0,0,1,8.98,8.98Zm11.937-2.7c0,.051.552.034-8.978.034,0-5.589.2-7.1-.789-9.692v-1.013a3.723,3.723,0,0,1,3.739-3.7h2.289a3.723,3.723,0,0,1,3.739,3.7Z" transform="translate(0 -187.48)"/><path class="a" d="M30.426,107.852A5.426,5.426,0,1,0,25,102.426,5.432,5.432,0,0,0,30.426,107.852Zm0-7.892a2.466,2.466,0,1,1-2.466,2.466A2.469,2.469,0,0,1,30.426,99.96Z" transform="translate(-22.534 -57.686)"/></g></svg>