<svg xmlns="http://www.w3.org/2000/svg" width="49.799" height="49.538" viewBox="0 0 49.799 49.538"><defs><style>.a{fill:#4563e5;}</style></defs><g transform="translate(0 -1.304)"><g transform="translate(34.591 31.335)"><path class="a" d="M350.1,301.992l-3.761,3.761,1.13,1.13,1.832-1.832v6.86h1.6v-6.86l1.832,1.832,1.13-1.13Z" transform="translate(-346.344 -301.992)"/></g><g transform="translate(9.588 8.729)"><path class="a" d="M106.952,75.648l-1.13,1.13,1.832,1.832H96v1.6h11.654l-1.832,1.832,1.13,1.13,3.761-3.761Z" transform="translate(-96 -75.648)"/></g><g transform="translate(3.196 34.862)"><path class="a" d="M32,337.3V348.49H46.382V337.3Zm12.784,9.588H33.6V338.9H44.784Z" transform="translate(-32 -337.304)"/></g><g transform="translate(19.912 34.583)"><g transform="translate(0 0)"><rect class="a" width="7.465" height="1.866"/></g></g><g transform="translate(19.912 38.315)"><g transform="translate(0 0)"><rect class="a" width="7.465" height="1.866"/></g></g><g transform="translate(19.912 41.114)"><g transform="translate(0 0)"><rect class="a" width="7.465" height="1.866"/></g></g><g transform="translate(19.912 44.847)"><g transform="translate(0 0)"><rect class="a" width="7.465" height="0.933" transform="translate(0 0)"/></g></g><g transform="translate(0 1.304)"><g transform="translate(0 0)"><path class="a" d="M48.713,26.267a5.569,5.569,0,0,0-4.28-3.948l-4.482-.9v-.209a6.406,6.406,0,0,0,3-3.99,3.2,3.2,0,0,0,2.592-3.135V8.593a5.011,5.011,0,0,0-3.5-4.784A6.168,6.168,0,0,0,37.07,1.3a9.114,9.114,0,0,0-9.1,9.1v3.679a3.2,3.2,0,0,0,2.592,3.135,6.406,6.406,0,0,0,3,3.99v.209l-4.481.9A5.559,5.559,0,0,0,25.2,25.274H0V50.842H31.96V30.068H49.8Zm-5.567-10.8V12.712a1.584,1.584,0,0,1,0,2.752Zm-12.784,0a1.584,1.584,0,0,1,0-2.752Zm-.8-4.128v-.928A7.515,7.515,0,0,1,37.07,2.9a4.574,4.574,0,0,1,3.814,2.041l.171.256.3.075a3.415,3.415,0,0,1,2.591,3.318v2.743a3.163,3.163,0,0,0-1.6-.444,8.845,8.845,0,0,1-5.274-1.758L35.88,8.239,34.688,9.431a4.954,4.954,0,0,1-3.527,1.461A3.163,3.163,0,0,0,29.563,11.336Zm2.4,4.35v-3.25a6.529,6.529,0,0,0,3.858-1.875l.213-.213.085.063a10.467,10.467,0,0,0,5.433,2.045v3.229a4.794,4.794,0,1,1-9.588,0Zm-1.6,33.558H1.6V33.264H30.362Zm0-17.578H1.6V26.872H24.623l-.913,3.2h6.653Zm13.407-3.2-.648-2.59-1.55.387.551,2.2H31.386l.551-2.2-1.55-.387-.648,2.59h-3.91l.5-1.764a3.979,3.979,0,0,1,3.058-2.82l5.766-1.153v-.866a6.17,6.17,0,0,0,3.2,0v.866l5.766,1.152a3.981,3.981,0,0,1,3.058,2.82l.5,1.764Z" transform="translate(0 -1.304)"/></g></g><g transform="translate(3.116 28.051)"><g transform="translate(0 0)"><rect class="a" width="1.866" height="1.866"/></g></g><g transform="translate(5.915 28.051)"><g transform="translate(0 0)"><rect class="a" width="1.866" height="1.866" transform="translate(0)"/></g></g><g transform="translate(9.648 28.051)"><g transform="translate(0 0)"><rect class="a" width="0.933" height="1.866"/></g></g><g transform="translate(0.316 12.188)"><g transform="translate(0 0)"><rect class="a" width="0.933" height="0.933"/></g></g><g transform="translate(3.116 12.188)"><g transform="translate(0 0)"><rect class="a" width="1.866" height="0.933"/></g></g><g transform="translate(5.915 12.188)"><g transform="translate(0 0)"><rect class="a" width="1.866" height="0.933" transform="translate(0)"/></g></g><g transform="translate(37.64 49.512)"><g transform="translate(0 0)"><rect class="a" width="1.866" height="0.933" transform="translate(0)"/></g></g><g transform="translate(37.64 45.78)"><g transform="translate(0 0)"><rect class="a" width="1.866" height="1.866" transform="translate(0)"/></g></g><g transform="translate(37.64 42.981)"><g transform="translate(0 0)"><rect class="a" width="1.866" height="1.866" transform="translate(0)"/></g></g></g></svg>