<svg xmlns="http://www.w3.org/2000/svg" width="90.981" height="92.498" viewBox="0 0 90.981 92.498"><defs><style>.a{fill:#4563e5;}</style></defs><g transform="translate(-2 -1)"><path class="a" d="M55.073,65.36H52.04V50.5a1.516,1.516,0,1,0-3.033,0V65.36H9.582V35.033H22.2A1.516,1.516,0,0,0,22.2,32H8.065a1.516,1.516,0,0,0-1.516,1.516V65.36H3.516A1.516,1.516,0,0,0,2,66.876v3.033a7.582,7.582,0,0,0,7.582,7.582H49.007a7.582,7.582,0,0,0,7.582-7.582V66.876A1.516,1.516,0,0,0,55.073,65.36Zm-1.516,4.549a4.549,4.549,0,0,1-4.549,4.549H45.974V72.942a1.516,1.516,0,1,0-3.033,0v1.516H15.647V72.942a1.516,1.516,0,0,0-3.033,0v1.516H9.582a4.549,4.549,0,0,1-4.549-4.549V68.393H53.556Z" transform="translate(0 16.007)"/><path class="a" d="M56.582,9.033h3.033a1.516,1.516,0,1,0,0-3.033H56.582a4.549,4.549,0,0,0-4.549,4.549v1.516H50.516a1.516,1.516,0,1,0,0,3.033h1.516v4.549a1.516,1.516,0,1,0,3.033,0V15.1h1.516a1.516,1.516,0,1,0,0-3.033H55.065V10.549A1.516,1.516,0,0,1,56.582,9.033Z" transform="translate(24.269 2.582)"/><path class="a" d="M66.745,2h-18.2A4.549,4.549,0,0,0,44,6.549V9.582a1.516,1.516,0,0,0,3.033,0V6.549a1.516,1.516,0,0,1,1.516-1.516h18.2a1.516,1.516,0,0,1,1.516,1.516v18.2a1.516,1.516,0,0,1-1.516,1.516h-18.2a1.516,1.516,0,0,1-1.516-1.516v-9.1a1.516,1.516,0,0,0-3.033,0v9.1a4.549,4.549,0,0,0,4.549,4.549h18.2a4.549,4.549,0,0,0,4.549-4.549V6.549A4.549,4.549,0,0,0,66.745,2Z" transform="translate(21.687 0.516)"/><path class="a" d="M49,44.065A6.065,6.065,0,1,0,55.065,38,6.065,6.065,0,0,0,49,44.065Zm9.1,0a3.033,3.033,0,1,1-3.033-3.033A3.033,3.033,0,0,1,58.1,44.065Z" transform="translate(24.269 19.105)"/><path class="a" d="M66.745,33h-18.2A4.549,4.549,0,0,0,44,37.549v18.2a4.549,4.549,0,0,0,4.549,4.549h18.2a4.549,4.549,0,0,0,4.549-4.549V52.713a1.516,1.516,0,1,0-3.033,0v3.033a1.516,1.516,0,0,1-1.516,1.516h-18.2a1.516,1.516,0,0,1-1.516-1.516v-18.2a1.516,1.516,0,0,1,1.516-1.516h18.2a1.516,1.516,0,0,1,1.516,1.516v9.1a1.516,1.516,0,1,0,3.033,0v-9.1A4.549,4.549,0,0,0,66.745,33Z" transform="translate(21.687 16.523)"/><path class="a" d="M24.713,17.9a1.508,1.508,0,0,0,1.486.061l9.1-4.549a1.516,1.516,0,0,0,0-2.7L26.2,6.165A1.516,1.516,0,0,0,24,7.515v9.1A1.516,1.516,0,0,0,24.713,17.9Zm2.32-7.931,4.185,2.093-4.185,2.093Z" transform="translate(11.36 2.583)"/><path class="a" d="M31.647,28.294A13.647,13.647,0,1,0,18,14.647,13.647,13.647,0,0,0,31.647,28.294Zm0-24.262A10.615,10.615,0,1,1,21.033,14.647,10.615,10.615,0,0,1,31.647,4.033Z" transform="translate(8.262)"/><path class="a" d="M37.516,26.1a1.516,1.516,0,0,0,1.213-.607l4.549-6.065a1.516,1.516,0,0,0-2.426-1.82L36.3,23.672A1.516,1.516,0,0,0,37.516,26.1Z" transform="translate(17.556 8.262)"/><path class="a" d="M39.3,28.975a1.516,1.516,0,0,0,2.123.3l6.065-4.549a1.516,1.516,0,1,0-1.82-2.426l-6.065,4.549a1.516,1.516,0,0,0-.3,2.123Z" transform="translate(19.105 10.843)"/><path class="a" d="M52.669,29.225a1.516,1.516,0,0,0-1.82-1.213l-7.582,1.516a1.524,1.524,0,1,0,.3,3.033h.3l7.582-1.516a1.516,1.516,0,0,0,1.213-1.82Z" transform="translate(20.6 13.929)"/><path class="a" d="M3.516,38.294h18.2a1.516,1.516,0,0,0,1.516-1.516V12.516A1.516,1.516,0,0,0,21.713,11H3.516A1.516,1.516,0,0,0,2,12.516V36.778A1.516,1.516,0,0,0,3.516,38.294ZM5.033,14.033H20.2V35.262H5.033Z" transform="translate(0 5.164)"/><path class="a" d="M12.549,15H9.516a1.516,1.516,0,1,0,0,3.033h3.033a1.516,1.516,0,1,0,0-3.033Z" transform="translate(3.098 7.229)"/><path class="a" d="M13.582,19H7.516a1.516,1.516,0,1,0,0,3.033h6.065a1.516,1.516,0,0,0,0-3.033Z" transform="translate(2.065 9.294)"/><path class="a" d="M13.582,23H7.516a1.516,1.516,0,1,0,0,3.033h6.065a1.516,1.516,0,0,0,0-3.033Z" transform="translate(2.065 11.36)"/><path class="a" d="M50.106,31.642a1.522,1.522,0,0,0-2.638,1.516l6.687,11.57-24.262,9.1h-.227L25.723,56.1,23.1,57.617a3.028,3.028,0,0,1-4.14-1.107l-3.033-5.247a3.033,3.033,0,0,1,1.137-4l5.247-3.033L26.1,50.793a1.522,1.522,0,0,0,2.638-1.516l-3.912-6.763L43.859,26.82,44.48,27.9a1.522,1.522,0,0,0,2.638-1.516L45.6,23.757a1.537,1.537,0,0,0-2.29-.409l-21.229,17.5-6.46,3.73a6.065,6.065,0,0,0-2.79,6.869l-1.516.864A4.546,4.546,0,0,0,13.592,60.8a4.64,4.64,0,0,0,2.275-.607l1.516-.864a5.883,5.883,0,0,0,2.654,1.577,5.747,5.747,0,0,0,1.592.212,5.975,5.975,0,0,0,3.033-.819l1.319-.758L29.014,64.8a4.545,4.545,0,1,0,7.87-4.549l-2.76-4.807,22.745-8.537a1.521,1.521,0,0,0,.789-2.168ZM14.29,57.556a1.515,1.515,0,1,1-1.516-2.623l1.319-.758L15.609,56.8ZM34.245,61.8a1.515,1.515,0,0,1-2.623,1.516l-3.033-5.262,2.517-1.441h.121Z" transform="translate(3.632 11.361)"/></g></svg>