<svg xmlns="http://www.w3.org/2000/svg" width="93.623" height="93.623" viewBox="0 0 93.623 93.623"><defs><style>.a{fill:#4563e5;}</style></defs><g transform="translate(-1 -1)"><path class="a" d="M90.092,37.241a4.506,4.506,0,0,0-1.685.332,4.492,4.492,0,0,0-6.04-3.02A4.454,4.454,0,0,0,76.5,31.479V26.671a4.524,4.524,0,0,0-3.02-4.252V5.53A4.536,4.536,0,0,0,68.952,1H5.53A4.536,4.536,0,0,0,1,5.53v30.2a4.536,4.536,0,0,0,4.53,4.53H27.5l9.5,10.856a3.587,3.587,0,0,0,6.286-2.363V40.261h12.08V51.733A29.186,29.186,0,0,0,61.4,69.474V94.623H88.582V69.474a29.186,29.186,0,0,0,6.04-17.741V41.771A4.536,4.536,0,0,0,90.092,37.241Zm-49.831,0V48.754a.589.589,0,0,1-.994.374l-10.4-11.887H5.53a1.512,1.512,0,0,1-1.51-1.51V5.53A1.512,1.512,0,0,1,5.53,4.02H68.952a1.512,1.512,0,0,1,1.51,1.51V22.418a4.524,4.524,0,0,0-3.02,4.252V49.321a1.51,1.51,0,1,1-3.02,0v-9.06a6.046,6.046,0,0,0-6.04-6.04,3.023,3.023,0,0,0-3.02,3.02ZM64.422,91.6V69.577l1.327-1.327a13.073,13.073,0,0,1,18.486,0l1.327,1.327V91.6ZM91.6,51.733A26.152,26.152,0,0,1,86.9,66.64l-.524-.524a16.092,16.092,0,0,0-22.758,0l-.524.524a26.134,26.134,0,0,1-4.708-14.906V37.241a3.023,3.023,0,0,1,3.02,3.02v9.06a4.53,4.53,0,1,0,9.06,0V26.671a1.51,1.51,0,1,1,3.02,0V50.831H76.5v-15.1a1.51,1.51,0,0,1,3.02,0v15.1h3.02V38.751a1.51,1.51,0,0,1,3.02,0v12.08h3.02v-9.06a1.51,1.51,0,0,1,3.02,0Z" transform="translate(0 0)"/><path class="a" d="M51.53,45a4.53,4.53,0,1,0,4.53,4.53A4.536,4.536,0,0,0,51.53,45Zm0,6.04a1.51,1.51,0,1,1,1.51-1.51A1.511,1.511,0,0,1,51.53,51.04Z" transform="translate(23.462 22.442)"/><path class="a" d="M9,13.04V22.1a6.046,6.046,0,0,0,6.04,6.04h6.04V25.12H15.04a3.023,3.023,0,0,1-3.02-3.02V13.04a3.023,3.023,0,0,1,3.02-3.02h6.04V7H15.04A6.046,6.046,0,0,0,9,13.04Z" transform="translate(4.08 3.06)"/><path class="a" d="M19,10.02h6.04v18.12h3.02V10.02H34.1V7H19Z" transform="translate(9.181 3.06)"/><path class="a" d="M43.08,23.855v4.285H46.1V23.855a8.111,8.111,0,0,0-2.555-5.9A6.028,6.028,0,0,0,40.06,7H31V28.141h3.02V19.08h5.746A5.1,5.1,0,0,1,43.08,23.855ZM34.02,10.02h6.04a3.02,3.02,0,1,1,0,6.04H34.02Z" transform="translate(15.301 3.06)"/><path class="a" d="M53,10H65.08v3.02H53Z" transform="translate(26.522 4.59)"/><path class="a" d="M0,0H12.813V3.02H0Z" transform="translate(76.936 10.51) rotate(-45)"/><path class="a" d="M0,0H3.02V12.813H0Z" transform="translate(76.933 21.704) rotate(-45)"/></g></svg>