<svg xmlns="http://www.w3.org/2000/svg" width="97.545" height="97.545" viewBox="0 0 97.545 97.545"><defs><style>.a{fill:#4563e5;}</style></defs><g transform="translate(-1 -1)"><path class="a" d="M41.72,45v3.147H37v4.72a4.726,4.726,0,0,0,4.72,4.72h3.147A1.575,1.575,0,0,1,46.44,59.16v1.573H41.72a1.575,1.575,0,0,1-1.573-1.573H37a4.726,4.726,0,0,0,4.72,4.72v3.147h3.147V63.88h4.72V59.16a4.726,4.726,0,0,0-4.72-4.72H41.72a1.575,1.575,0,0,1-1.573-1.573V51.293h4.72a1.575,1.575,0,0,1,1.573,1.573h3.147a4.726,4.726,0,0,0-4.72-4.72V45Z" transform="translate(20.639 25.226)"/><path class="a" d="M0,0H3.147V17.7H0Z" transform="matrix(0.8, -0.6, 0.6, 0.8, 45.367, 31.85)"/><path class="a" d="M0,0H3.147V3.933H0Z" transform="matrix(0.8, -0.6, 0.6, 0.8, 58.347, 49.159)"/><path class="a" d="M95.4,16.733H92.172A17.3,17.3,0,0,0,63.928,4.962,17.291,17.291,0,0,0,35.693,16.733H32.466A3.15,3.15,0,0,0,29.32,19.88v3.147a3.15,3.15,0,0,0,3.147,3.147h.787L56.066,56.59v9.253A17.271,17.271,0,0,0,54.013,95.4H4.147V23.026H1V98.545H63.933a17.295,17.295,0,0,0,7.867-32.7V56.59L94.612,26.173H95.4a3.15,3.15,0,0,0,3.147-3.147V19.88A3.15,3.15,0,0,0,95.4,16.733Zm-6.386,0h-3.18A11,11,0,0,0,67.968,9.79,17.331,17.331,0,0,0,66.175,7.2a14.145,14.145,0,0,1,22.838,9.533Zm-18.867,0a17.125,17.125,0,0,0-.829-3.919,7.865,7.865,0,0,1,13.337,3.919ZM52.919,4.147A14.175,14.175,0,0,1,66.986,16.733h-3.18a11,11,0,0,0-21.775,0h-3.18A14.175,14.175,0,0,1,52.919,4.147Zm7.708,12.587H45.212a7.867,7.867,0,0,1,15.415,0ZM78.092,81.239a14.16,14.16,0,1,1-14.16-14.16A14.176,14.176,0,0,1,78.092,81.239ZM63.933,63.933a17.253,17.253,0,0,0-4.72.67V57.639h9.44V64.6A17.253,17.253,0,0,0,63.933,63.933Zm5.507-9.44H58.426l-21.24-28.32H90.679ZM32.466,23.026V19.88H95.4l0,3.147Z"/><path class="a" d="M8.147,71.613h3.147V65.32H14.44V52.733H11.293V37H8.147V52.733H5V65.32H8.147Zm0-15.733h3.147v6.293H8.147Z" transform="translate(2.293 20.639)"/><path class="a" d="M16.147,27v6.293H13V45.88h3.147V61.613h3.147V45.88H22.44V33.293H19.293V27Zm3.147,15.733H16.147V36.44h3.147Z" transform="translate(6.88 14.906)"/><path class="a" d="M24.147,32v7.867H21V60.32h3.147v6.293h3.147V60.32H30.44V39.867H27.293V32Zm3.147,25.173H24.147V43.013h3.147Z" transform="translate(11.466 17.773)"/><path class="a" d="M5,15H20.733v3.147H5Z" transform="translate(2.293 8.026)"/><path class="a" d="M5,19H20.733v3.147H5Z" transform="translate(2.293 10.32)"/><path class="a" d="M5,23H8.147v3.147H5Z" transform="translate(2.293 12.613)"/><path class="a" d="M13,23h3.147v3.147H13Z" transform="translate(6.88 12.613)"/><path class="a" d="M9,23h3.147v3.147H9Z" transform="translate(4.587 12.613)"/></g></svg>