<svg xmlns="http://www.w3.org/2000/svg" width="110.627" height="102.559" viewBox="0 0 110.627 102.559"><defs><style>.a{fill:#4563e5;}</style></defs><g transform="translate(-1.832 -6.221)"><g transform="translate(1.832 6.221)"><path class="a" d="M47.674,43.816a.918.918,0,0,0-.919.919V52.32a.919.919,0,0,0,1.839,0V44.735A.919.919,0,0,0,47.674,43.816Z" transform="translate(-5.456 -9.254)"/><path class="a" d="M26.9,33.447a3.969,3.969,0,0,1-2.3.563,7.453,7.453,0,0,1-2.164-.313,10.168,10.168,0,0,1-2.19-.988,2.509,2.509,0,0,0-1.177-.4,1.132,1.132,0,0,0-.889.476,1.843,1.843,0,0,0-.225,1.889,1.494,1.494,0,0,0,.563.563,8.869,8.869,0,0,0,2.265,1.152,11.179,11.179,0,0,0,2.665.576v1.351a1.447,1.447,0,0,0,.426,1.088,1.5,1.5,0,0,0,2.578-1.088V36.888a6.716,6.716,0,0,0,3.742-1.79,4.639,4.639,0,0,0,1.389-3.416,4.126,4.126,0,0,0-.838-2.715,4.951,4.951,0,0,0-2-1.476,23.553,23.553,0,0,0-2.991-.914q-1.3-.325-2.027-.575a3.373,3.373,0,0,1-1.2-.689,1.475,1.475,0,0,1-.475-1.139,1.892,1.892,0,0,1,.813-1.6,3.561,3.561,0,0,1,2.164-.6,5.373,5.373,0,0,1,1.99.325,11.6,11.6,0,0,1,1.84.976,3.566,3.566,0,0,0,.663.325,1.7,1.7,0,0,0,.512.075,1.134,1.134,0,0,0,.889-.475,1.693,1.693,0,0,0,.388-1.1,1.719,1.719,0,0,0-.163-.776,1.52,1.52,0,0,0-.538-.575,9.38,9.38,0,0,0-4.23-1.7V17.667A1.532,1.532,0,0,0,23.8,16.579a1.451,1.451,0,0,0-.426,1.088v1.427A6.764,6.764,0,0,0,19.6,20.946a4.768,4.768,0,0,0-1.439,3.479,4.139,4.139,0,0,0,.863,2.753,5.136,5.136,0,0,0,2.065,1.5,26.254,26.254,0,0,0,3.053.951q1.277.35,1.952.575a3.314,3.314,0,0,1,1.139.626,1.3,1.3,0,0,1,.462,1.026,1.82,1.82,0,0,1-.8,1.59Z" transform="translate(-3.12 -7.023)"/><path class="a" d="M36.884,47.774H11.3a.919.919,0,1,0,0,1.839H36.884a.919.919,0,1,0,0-1.839Z" transform="translate(-2.521 -9.573)"/><path class="a" d="M36.884,57.774H11.3a.919.919,0,0,0,0,1.839H36.884a.919.919,0,1,0,0-1.839Z" transform="translate(-2.521 -10.38)"/><path class="a" d="M98.049,73.944a16.05,16.05,0,0,0-9.733-28.066v-22.7a16.957,16.957,0,1,0-33.913,0V91.823a15.135,15.135,0,0,1-15.118,15.118h-.246A15.135,15.135,0,0,1,23.92,91.823V65.056a4.311,4.311,0,0,0,2.386-1.4,2.554,2.554,0,0,1,3.753,0,4.313,4.313,0,0,0,3.265,1.5h0a4.317,4.317,0,0,0,3.27-1.5,2.555,2.555,0,0,1,3.753,0,4.329,4.329,0,0,0,3.821,1.457.92.92,0,0,0,.8-.912V52.619a.919.919,0,1,0-1.839,0V63.264a2.47,2.47,0,0,1-1.4-.813,4.314,4.314,0,0,0-3.267-1.5h0a4.32,4.32,0,0,0-3.269,1.5,2.475,2.475,0,0,1-1.875.859h0a2.478,2.478,0,0,1-1.876-.861,4.312,4.312,0,0,0-3.266-1.5h0a4.314,4.314,0,0,0-3.266,1.5,2.557,2.557,0,0,1-3.751,0,4.313,4.313,0,0,0-3.265-1.5h0a4.314,4.314,0,0,0-3.267,1.5,2.558,2.558,0,0,1-3.735.019.175.175,0,0,0-.017-.019,4.313,4.313,0,0,0-3.265-1.5h0a4.316,4.316,0,0,0-3.269,1.5A2.482,2.482,0,0,1,3.669,63V8.371a2.459,2.459,0,0,1,.658.53c0,.006.01.012.016.018a4.314,4.314,0,0,0,3.267,1.5h0a4.313,4.313,0,0,0,3.265-1.5l.017-.019a2.476,2.476,0,0,1,3.734.019,4.314,4.314,0,0,0,3.267,1.5h0a4.313,4.313,0,0,0,3.265-1.5,2.557,2.557,0,0,1,3.751,0,4.315,4.315,0,0,0,6.536,0,2.475,2.475,0,0,1,1.874-.859h0a2.476,2.476,0,0,1,1.878.862,4.316,4.316,0,0,0,3.265,1.5h0a4.32,4.32,0,0,0,3.272-1.5,2.459,2.459,0,0,1,1.392-.809V38.256a.919.919,0,0,0,1.839,0V7.171a.919.919,0,0,0-.8-.912A4.312,4.312,0,0,0,40.344,7.72a2.477,2.477,0,0,1-3.754,0,4.315,4.315,0,0,0-3.266-1.495h0a4.315,4.315,0,0,0-3.268,1.5,2.557,2.557,0,0,1-3.75,0,4.315,4.315,0,0,0-6.535,0,2.557,2.557,0,0,1-3.75,0,4.316,4.316,0,0,0-6.535,0l-.017.019a2.557,2.557,0,0,1-3.72,0,.1.1,0,0,0-.016-.017A4.289,4.289,0,0,0,2.827,6.238a.935.935,0,0,0-.7.241.92.92,0,0,0-.3.676V64.218a.919.919,0,0,0,.3.677.9.9,0,0,0,.7.239,4.292,4.292,0,0,0,2.908-1.479,2.477,2.477,0,0,1,3.733-.019.126.126,0,0,0,.017.02,4.316,4.316,0,0,0,6.535,0,2.476,2.476,0,0,1,3.75,0,4.307,4.307,0,0,0,2.31,1.385V91.821a16.976,16.976,0,0,0,16.957,16.957h.246A16.976,16.976,0,0,0,56.241,91.821V23.178a15.118,15.118,0,1,1,30.236,0v22.7a16.05,16.05,0,0,0-9.731,28.066A19.325,19.325,0,0,0,62.334,92.6v13.421a2.761,2.761,0,0,0,2.758,2.758H109.7a2.761,2.761,0,0,0,2.758-2.758V92.6a19.324,19.324,0,0,0-14.41-18.657Zm-2.99,2.375-1.337,5.6-4.746-3.789.4-.257a15.931,15.931,0,0,0,5.282-1.618C94.794,76.277,94.928,76.293,95.059,76.319Zm-14.927-.063a15.953,15.953,0,0,0,5.282,1.618l.4.257-4.746,3.789-1.336-5.6C79.867,76.293,80,76.277,80.132,76.255ZM86.638,85.2h1.519l1.476,17.163-2.236,1.7-2.236-1.7Zm1.709-1.839h-1.9l-.925-2.643,1.875-1.5,1.875,1.5Zm-15.2-21.442A14.25,14.25,0,1,1,87.4,76.169,14.265,14.265,0,0,1,73.148,61.919Zm37.474,44.1a.92.92,0,0,1-.919.919H101.12V91.856a.919.919,0,1,0-1.839,0v15.085H75.512V91.856a.919.919,0,0,0-1.839,0v15.085H65.092a.92.92,0,0,1-.919-.919V92.6a17.473,17.473,0,0,1,13.55-16.994.885.885,0,0,0,.008.231l1.888,7.916a.916.916,0,0,0,.595.655.9.9,0,0,0,.3.051.917.917,0,0,0,.574-.2L84,81.934l.862,2.465-1.574,18.309a.92.92,0,0,0,.359.811l3.195,2.433a.919.919,0,0,0,1.112,0l3.195-2.433a.922.922,0,0,0,.359-.811L89.934,84.4l.861-2.463,2.912,2.325a.917.917,0,0,0,.574.2.907.907,0,0,0,.3-.051.916.916,0,0,0,.595-.655l1.889-7.916a.884.884,0,0,0,.008-.231A17.473,17.473,0,0,1,110.621,92.6Z" transform="translate(-1.832 -6.221)"/></g></g></svg>