<svg xmlns="http://www.w3.org/2000/svg" width="105.415" height="70.415" viewBox="0 0 105.415 70.415"><defs><style>.a{fill:#4563e5;}</style></defs><g transform="translate(-4291 804.3)"><g transform="translate(4291 -781.492)"><path class="a" d="M2.7,48.607H33.3a1.7,1.7,0,0,0,1.7-1.7v-6.8a11.918,11.918,0,0,0-9.623-11.677A10.205,10.205,0,0,0,27.609,24.8h2.3a5.088,5.088,0,0,0,1.7-9.889V9.5A8.511,8.511,0,0,0,23.1,1H12.9A8.511,8.511,0,0,0,4.4,9.5v5.414A5.088,5.088,0,0,0,6.1,24.8H8.4a10.205,10.205,0,0,0,2.227,3.625A11.918,11.918,0,0,0,1,40.105v6.8A1.7,1.7,0,0,0,2.7,48.607Zm8.5-27.2V18h1.7a15.9,15.9,0,0,0,9.771-4.036A8.574,8.574,0,0,0,24.8,16.3V21.4a6.8,6.8,0,0,1-13.6,0ZM21.4,31.6a3.4,3.4,0,0,1-6.8,0Zm8.5-10.2H28.2V18h1.7a1.7,1.7,0,1,1,0,3.4ZM7.8,9.5a5.107,5.107,0,0,1,5.1-5.1H23.1a5.107,5.107,0,0,1,5.1,5.1v4.81A5.111,5.111,0,0,1,24.8,9.5a1.7,1.7,0,0,0-3.4,0c0,2.365-5.143,5.1-8.5,5.1H7.8ZM6.1,21.4a1.7,1.7,0,1,1,0-3.4H7.8v3.4Zm-1.7,18.7a8.514,8.514,0,0,1,6.818-8.331,6.786,6.786,0,0,0,13.568,0A8.514,8.514,0,0,1,31.6,40.105v5.1H28.2v-6.8H24.8v6.8H11.2v-6.8H7.8v6.8H4.4Z" transform="translate(-1 -1)"/><path class="a" d="M67.381,28.428A10.205,10.205,0,0,0,69.609,24.8h2.3a5.088,5.088,0,0,0,1.7-9.889V9.5A8.511,8.511,0,0,0,65.1,1H54.9a8.511,8.511,0,0,0-8.5,8.5v5.414A5.088,5.088,0,0,0,48.1,24.8h2.3a10.2,10.2,0,0,0,2.227,3.625A11.918,11.918,0,0,0,43,40.105v6.8a1.7,1.7,0,0,0,1.7,1.7H75.3a1.7,1.7,0,0,0,1.7-1.7v-6.8A11.918,11.918,0,0,0,67.381,28.428ZM53.2,21.4V18h1.7a15.9,15.9,0,0,0,9.771-4.036A8.574,8.574,0,0,0,66.8,16.3V21.4a6.8,6.8,0,0,1-13.6,0ZM63.4,31.6a3.4,3.4,0,0,1-6.8,0Zm8.5-10.2H70.2V18h1.7a1.7,1.7,0,0,1,0,3.4ZM49.8,9.5a5.107,5.107,0,0,1,5.1-5.1H65.1a5.107,5.107,0,0,1,5.1,5.1v4.81A5.111,5.111,0,0,1,66.8,9.5a1.7,1.7,0,0,0-3.4,0c0,2.365-5.143,5.1-8.5,5.1H49.8ZM48.1,21.4a1.7,1.7,0,1,1,0-3.4h1.7v3.4Zm25.5,23.8H70.2v-6.8H66.8v6.8H53.2v-6.8H49.8v6.8H46.4v-5.1a8.514,8.514,0,0,1,6.818-8.331,6.786,6.786,0,0,0,13.568,0A8.514,8.514,0,0,1,73.6,40.105Z" transform="translate(28.41 -1)"/><path class="a" d="M38.3,43A15.319,15.319,0,0,0,53.6,27.7v-17A1.7,1.7,0,0,0,51.9,9H45.1a1.7,1.7,0,0,0-1.7,1.7v17a5.1,5.1,0,1,1-10.2,0v-17A1.7,1.7,0,0,0,31.5,9H24.7A1.7,1.7,0,0,0,23,10.7v17A15.319,15.319,0,0,0,38.3,43ZM50.2,12.4v3.4H46.8V12.4Zm-20.4,0v3.4H26.4V12.4Zm-3.4,6.8h3.4v8.5a8.5,8.5,0,1,0,17,0V19.2h3.4v8.5a11.9,11.9,0,1,1-23.8,0Z" transform="translate(14.405 4.602)"/></g><g transform="translate(4336 -804.3)"><g transform="translate(0 0)"><path class="a" d="M219.032,252.206c-.4-.142-.815-.291-1.226-.445V244.48a6.6,6.6,0,0,1,1.848.863,1.607,1.607,0,0,0,1.933-2.567,9.812,9.812,0,0,0-3.781-1.6v-1.6a1.607,1.607,0,1,0-3.213,0v1.587a8.3,8.3,0,0,0-.827.2,6.434,6.434,0,0,0-4.411,5.047,5.674,5.674,0,0,0,1.858,5.593,15.464,15.464,0,0,0,3.381,1.921v9.318a6.423,6.423,0,0,1-3.522-1.291,1.607,1.607,0,0,0-1.759,2.689,9.484,9.484,0,0,0,5.281,1.817v1.661a1.607,1.607,0,0,0,3.213,0v-1.828a7.745,7.745,0,0,0,5.9-6.31A6.8,6.8,0,0,0,219.032,252.206Zm-5.836-2.729a2.5,2.5,0,0,1-.684-2.468,3.272,3.272,0,0,1,2.081-2.532v5.884A9.6,9.6,0,0,1,213.2,249.477Zm7.346,9.972a4.606,4.606,0,0,1-2.735,3.48v-7.75l.155.056A3.635,3.635,0,0,1,220.541,259.449Z" transform="translate(-208.584 -237.97)"/></g></g></g></svg>