<svg xmlns="http://www.w3.org/2000/svg" width="86.146" height="99.206" viewBox="0 0 86.146 99.206"><defs><style>.a{fill:#4563e5;}</style></defs><g transform="translate(-33.7)"><path class="a" d="M147.537,52.977a26.488,26.488,0,1,0-26.488-26.488A26.518,26.518,0,0,0,147.537,52.977Zm0-50.065a23.576,23.576,0,1,1-23.576,23.576A23.6,23.6,0,0,1,147.537,2.912Z" transform="translate(-70.424)"/><path class="a" d="M178.045,76.153A19.157,19.157,0,1,0,165.178,42.8a1.456,1.456,0,0,0,1.957,2.157,16.208,16.208,0,1,1-3.374,4.293,1.456,1.456,0,0,0-2.559-1.39,19.162,19.162,0,0,0,16.843,28.289Z" transform="translate(-100.932 -30.508)"/><path class="a" d="M230.357,92.292c-2.287-.139-2.915-1.516-3.031-1.839a1.457,1.457,0,0,0-2.825.717h0l.008.028a1.438,1.438,0,0,0,.066.2,5.818,5.818,0,0,0,4.528,3.663V97a1.456,1.456,0,0,0,2.912,0V95.106a5.57,5.57,0,0,0,2.915-1.4,5.768,5.768,0,0,0,1.739-4.145c0-1.475-.579-4.971-5.939-5.562a3.192,3.192,0,0,1-2.251-1,2.032,2.032,0,0,1-.423-1.229,2.389,2.389,0,0,1,2.5-2.5,2.587,2.587,0,0,1,2.361,1.235,1.458,1.458,0,1,0,2.65-1.209h0a5.348,5.348,0,0,0-3.556-2.768V74.565a1.456,1.456,0,0,0-2.912,0v1.948a5.31,5.31,0,0,0-3.958,5.25c0,2.1,1.379,4.7,5.267,5.127,3.346.369,3.346,2.1,3.346,2.668a2.865,2.865,0,0,1-.823,2.024A3.335,3.335,0,0,1,230.357,92.292Z" transform="translate(-153.797 -58.943)"/><path class="a" d="M78.61,346.086a1.456,1.456,0,0,0-2.121,0L66.6,356.6a1.456,1.456,0,0,0,1.061,2.454h2.859v5.288a1.456,1.456,0,0,0,2.912,0V357.6a1.456,1.456,0,0,0-1.456-1.456h-.946l6.522-6.934,6.522,6.934h-.946a1.456,1.456,0,0,0-1.456,1.456v17.353h-8.24v-4.785a1.456,1.456,0,1,0-2.912,0v6.241a1.456,1.456,0,0,0,1.456,1.456H83.125a1.456,1.456,0,0,0,1.456-1.456V359.055h2.859A1.456,1.456,0,0,0,88.5,356.6Z" transform="translate(-26.204 -278.659)"/><path class="a" d="M211.6,294.386a1.456,1.456,0,0,0-2.121,0L199.589,304.9a1.456,1.456,0,0,0,1.061,2.454h2.859v27.371a1.456,1.456,0,0,0,1.456,1.456h11.152a1.456,1.456,0,0,0,1.456-1.456V307.355h2.859a1.456,1.456,0,0,0,1.06-2.454Zm4.515,10.057a1.456,1.456,0,0,0-1.456,1.456v27.37h-8.24V305.9a1.456,1.456,0,0,0-1.456-1.456h-.946l6.522-6.934,6.522,6.934h-.946Z" transform="translate(-133.427 -236.976)"/><path class="a" d="M344.592,246.552a1.456,1.456,0,0,0-2.121,0l-9.891,10.515a1.456,1.456,0,0,0,1.06,2.454H336.5v8.886a1.456,1.456,0,1,0,2.912,0V258.065a1.456,1.456,0,0,0-1.456-1.456h-.946l6.522-6.934,6.522,6.934h-.946a1.456,1.456,0,0,0-1.456,1.456V294.7h-8.24V274.231a1.456,1.456,0,1,0-2.912,0V296.16a1.456,1.456,0,0,0,1.456,1.456h11.152a1.456,1.456,0,0,0,1.456-1.456V259.521h2.859a1.456,1.456,0,0,0,1.06-2.454Z" transform="translate(-240.65 -198.411)"/><path class="a" d="M45.152,133.337a1.456,1.456,0,0,0-1.456-1.456h-8.54a1.456,1.456,0,0,0,0,2.912H43.7A1.456,1.456,0,0,0,45.152,133.337Z" transform="translate(0 -106.328)"/><path class="a" d="M78.523,197.951l-3.037,1.19a1.456,1.456,0,1,0,1.062,2.711l3.037-1.19a1.456,1.456,0,1,0-1.062-2.711Z" transform="translate(-32.943 -159.515)"/><path class="a" d="M75.486,62.578l3.037,1.19a1.456,1.456,0,1,0,1.062-2.711l-3.037-1.19a1.456,1.456,0,1,0-1.062,2.711Z" transform="translate(-32.943 -48.186)"/><path class="a" d="M429.191,131.881h-8.54a1.456,1.456,0,0,0,0,2.912h8.54a1.456,1.456,0,0,0,0-2.912Z" transform="translate(-310.801 -106.328)"/><path class="a" d="M407.656,200.664l3.037,1.19a1.456,1.456,0,1,0,1.063-2.711l-3.037-1.19a1.456,1.456,0,1,0-1.063,2.711Z" transform="translate(-300.752 -159.516)"/><path class="a" d="M408.188,63.869a1.452,1.452,0,0,0,.531-.1l3.037-1.19a1.456,1.456,0,0,0-1.063-2.711l-3.037,1.19a1.456,1.456,0,0,0,.532,2.812Z" transform="translate(-300.752 -48.186)"/></g></svg>