<svg xmlns="http://www.w3.org/2000/svg" width="99" height="99" viewBox="0 0 99 99"><defs><style>.a{fill:#4563e5;}</style></defs><path class="a" d="M89.663,47.907l-.275-.5,8.492-8.492a7.212,7.212,0,0,0-7.46-11.947V5.79A4.8,4.8,0,0,0,85.629,1H35.856a4.761,4.761,0,0,0-3.388,1.4l-14.1,14.1a4.756,4.756,0,0,0-1.4,3.388v3.548A17.581,17.581,0,0,0,1,40.919v51.1A7.993,7.993,0,0,0,8.984,100H28.145a7.993,7.993,0,0,0,7.984-7.984v-1.6H98.692L95.2,69.5A45.572,45.572,0,0,0,89.663,47.907Zm2.315,20.546L76.411,72.7l-3.754-3a7.952,7.952,0,0,1-3-6.235V48.9A3.2,3.2,0,0,1,72.855,52.1V63.274h3.194V60.742L87.025,49.766A42.338,42.338,0,0,1,91.978,68.453ZM69.661,45.71A3.2,3.2,0,0,0,66.468,48.9v1.6a1.6,1.6,0,0,1-3.194,0V48.9a6.394,6.394,0,0,1,6.387-6.387h4.129l-3.28,3.28A6.224,6.224,0,0,0,69.661,45.71ZM52.175,72.97l2.1-5.257,4.559,4.559-5.258,2.1a1.106,1.106,0,0,1-1.48-1A1.042,1.042,0,0,1,52.175,72.97Zm9.5-2.373-5.726-5.726,9.656-9.656a4.66,4.66,0,0,0,.861-.22v8.463a11.233,11.233,0,0,0,.217,2.13Zm-1.3-18.5H42.516V45.71H60.64a9.542,9.542,0,0,0-.559,3.194v1.6A4.736,4.736,0,0,0,60.375,52.1ZM42.516,55.29h18.5l-6.387,6.387H42.516Zm0,9.581h9.458l-2.555,6.387h-6.9Zm0,9.581H49.06a4.26,4.26,0,0,0,5.707,2.889l3.717-1.488v4.987H42.516Zm19.161.123.9-.359L67.892,68.9c.057.1.11.209.172.311V80.839H61.677Zm9.581-1.911,3.194,2.555v5.621H71.258ZM96.807,33.791a4.023,4.023,0,0,1-1.186,2.863L76.048,56.226V52.1a6.349,6.349,0,0,0-2.386-4.937L89.894,30.928a4.049,4.049,0,0,1,6.912,2.863ZM32.936,6.451v8.92a1.6,1.6,0,0,1-1.6,1.6h-8.92Zm-14.371,20.1A14.371,14.371,0,1,1,4.194,40.919,14.389,14.389,0,0,1,18.565,26.548Zm-7.984,30a17.411,17.411,0,0,0,15.968,0v8.326H10.581ZM28.145,96.807H8.984a4.8,4.8,0,0,1-4.79-4.79V50.987a17.727,17.727,0,0,0,3.194,3.471V64.871a3.2,3.2,0,0,0,3.194,3.194H26.548a3.2,3.2,0,0,0,3.194-3.194V54.458a17.728,17.728,0,0,0,3.194-3.471V92.016A4.8,4.8,0,0,1,28.145,96.807Zm7.984-9.581V40.919A17.581,17.581,0,0,0,20.161,23.436V20.161H31.339a4.8,4.8,0,0,0,4.79-4.79V4.194h49.5a1.6,1.6,0,0,1,1.6,1.6V29.081L76.984,39.323H69.661a9.554,9.554,0,0,0-7.122,3.194H39.323V84.032H74.452v3.194Zm41.516,0V75.672l14.682-4,2.593,15.559Z" transform="translate(-1 -1)"/></svg>