<svg xmlns="http://www.w3.org/2000/svg" width="90.127" height="99.713" viewBox="0 0 90.127 99.713"><defs><style>.a{fill:#4563e5;}</style></defs><g transform="translate(-3.586 -0.586)"><path class="a" d="M87.323,90.875V53.968a27.117,27.117,0,0,0-3.294-12.912,5.364,5.364,0,0,0,1.058.131,5.438,5.438,0,0,0,5.432-5.432V35.35a5.463,5.463,0,0,0-2.6-4.635L64.832,16.607a17.564,17.564,0,0,0-9.162-2.579H39.856a11,11,0,0,1-6.94-2.444l2.347-2.348L26.614.586,3.586,23.614l8.649,8.649,3.2-3.2,4.742,4.742A14.137,14.137,0,0,0,28.713,37.9a27,27,0,0,0-5.294,16.07V90.875a8,8,0,0,0-6.39,7.827v1.6H93.713V98.7a8,8,0,0,0-6.39-7.827Zm-3.2-.161h-6.39V87.86A12.395,12.395,0,0,0,67.38,75.635l-4.306-.717-.751-2.253a12.8,12.8,0,0,0,5.406-7.514h.522a6.4,6.4,0,0,0,6.39-6.39,6.324,6.324,0,0,0-1.431-3.98l1.152-4.293a9.355,9.355,0,0,0-5.879-11.062L57.973,35.606a13.233,13.233,0,0,0-1.446-.425,4.737,4.737,0,0,0,.441-1.981,7.905,7.905,0,0,0-1.639-4.793h1.639a11.216,11.216,0,0,1,5.263,1.316l16.024,8.546a23.925,23.925,0,0,1,5.873,15.7ZM42.59,55.576v6.37a3.186,3.186,0,0,1,0-6.37Zm1.4-3.2h-1.3a6.332,6.332,0,0,0-2.273.438,20.848,20.848,0,0,1-.922-5.231,3.2,3.2,0,0,1,3.2-3.2h.8l1.729-2.3a10.213,10.213,0,0,1,11.663-3.472l10.511,3.821a6.163,6.163,0,0,1,3.879,7.26l-.831,3.093a6.3,6.3,0,0,0-2.187-.411h-1.5l-.612-.153a31.6,31.6,0,0,1-9.883-4.371l-.885-.591-.887.591A31.523,31.523,0,0,1,44.6,52.217Zm24.161,3.2h.1a3.2,3.2,0,1,1,0,6.39h-.1Zm-22.366-.353a34.786,34.786,0,0,0,9.586-4.136,34.738,34.738,0,0,0,9.586,4.136v6.743a9.586,9.586,0,1,1-19.171,0ZM62.368,78.038l.313.053L60.8,84.841,57.8,82.6Zm-7-3.3a12.713,12.713,0,0,0,4.053-.669l.6,1.8-4.678,4.678L50.706,75.9l.612-1.836a12.713,12.713,0,0,0,4.053.669ZM48.33,78.046,52.887,82.6l-3,2.24L48.009,78.1Zm-3.491.582L48.07,90.2l7.277-5.443L62.624,90.2l3.229-11.576,1,.168a9.144,9.144,0,0,1,5.9,3.63,9.257,9.257,0,0,1,1.783,5.443v2.853H36.2V87.86a9.264,9.264,0,0,1,1.783-5.443,9.152,9.152,0,0,1,5.9-3.63ZM8.1,23.614,26.614,5.1l4.131,4.131-18.51,18.51Zm14.327,7.937L17.69,26.809l12.96-12.96a14.162,14.162,0,0,0,9.205,3.374H55.668a14.376,14.376,0,0,1,7.5,2.11L86.253,33.442a2.246,2.246,0,0,1,1.07,1.908v.406a2.236,2.236,0,0,1-3.289,1.973L63.734,26.9a14.417,14.417,0,0,0-6.766-1.692H40.992v3.2H48.98A4.8,4.8,0,0,1,53.773,33.2a1.6,1.6,0,0,1-1.6,1.6H30.269a11.085,11.085,0,0,1-7.838-3.246Zm10.314,6.442H44.718a13.385,13.385,0,0,0-2.058,2.17l-.81,1.08a6.4,6.4,0,0,0-5.55,6.336,26.755,26.755,0,0,0,1.392,7.252A6.327,6.327,0,0,0,36.3,58.761a6.4,6.4,0,0,0,6.39,6.39h.318a12.808,12.808,0,0,0,5.406,7.514l-.751,2.253-4.306.717A12.387,12.387,0,0,0,33,87.86v2.853h-6.39V53.968a23.842,23.842,0,0,1,6.132-15.976ZM20.5,97.1a4.8,4.8,0,0,1,4.52-3.2H85.725a4.8,4.8,0,0,1,4.52,3.2Z"/><path class="a" d="M32.169,40.982l.168.335a6.768,6.768,0,0,0,12.107,0l.169-.337-2.855-1.433-.171.34a3.572,3.572,0,0,1-6.39,0l-.168-.337Z" transform="translate(17.081 23.286)"/><circle class="a" cx="1.598" cy="1.598" r="1.598" transform="translate(58.566 57.164)"/><circle class="a" cx="1.598" cy="1.598" r="1.598" transform="translate(48.98 57.164)"/></g></svg>