<svg xmlns="http://www.w3.org/2000/svg" width="111.196" height="97.166" viewBox="0 0 111.196 97.166"><defs><style>.a{fill:#4563e5;}</style></defs><g transform="translate(-2 -6.414)"><path class="a" d="M65.6,64H38.76a1.589,1.589,0,0,1,0-3.177H65.6a4.149,4.149,0,0,0,2.952-1.21c.071-.071.132-.14.191-.2a1.515,1.515,0,0,1,.1-.14,4.13,4.13,0,0,0,.953-2.648,4.208,4.208,0,0,0-4.2-4.2h-15a1.589,1.589,0,0,1-1.176-.521,21.366,21.366,0,0,0-15.784-6.979H14.363a1.589,1.589,0,0,1,0-3.177h19.28a24.554,24.554,0,0,1,17.649,7.5H65.6a7.388,7.388,0,0,1,7.38,7.376A7.307,7.307,0,0,1,71.4,61.149a1.466,1.466,0,0,1-.135.186c-.159.178-.3.34-.459.5A7.333,7.333,0,0,1,65.6,64Z" transform="translate(6.341 20.79)"/><path class="a" d="M52.119,79.245a33.678,33.678,0,0,1-11.481-2.01L13.821,67.5a1.589,1.589,0,0,1,1.085-2.986l26.821,9.739a30.742,30.742,0,0,0,24.326-1.509l36.391-18.586A14.735,14.735,0,0,0,88.258,51.8L70.806,58.157a1.552,1.552,0,0,1-.74.187,1.589,1.589,0,0,1-1.091-2.758,1.554,1.554,0,0,1,.546-.342l17.654-6.427a17.921,17.921,0,0,1,17.633,3.177l1.5,1.3a1.589,1.589,0,0,1-.318,2.615L67.49,75.571A33.93,33.93,0,0,1,52.119,79.245Z" transform="translate(6.341 24.335)"/><path class="a" d="M20.7,77.006H3.589A1.589,1.589,0,0,1,2,75.418V40.829A1.589,1.589,0,0,1,3.589,39.24H20.7a1.589,1.589,0,0,1,1.589,1.589V75.418A1.589,1.589,0,0,1,20.7,77.006ZM5.177,73.829H19.109V42.417H5.177Z" transform="translate(0 19.32)"/><path class="a" d="M57,63.072A28.329,28.329,0,1,1,85.325,34.743,28.329,28.329,0,0,1,57,63.072ZM57,9.59A25.152,25.152,0,1,0,82.147,34.742,25.152,25.152,0,0,0,57,9.59Z" transform="translate(15.695)"/><path class="a" d="M49.626,31.7a8.712,8.712,0,1,1,8.985-8.707,1.589,1.589,0,1,1-3.177,0,5.816,5.816,0,1,0-5.808,5.53,1.589,1.589,0,1,1,0,3.177Z" transform="translate(23.064 4.631)"/><path class="a" d="M49.829,40.661a8.859,8.859,0,0,1-8.985-8.707,1.589,1.589,0,1,1,3.177,0,5.816,5.816,0,1,0,5.808-5.528,1.589,1.589,0,1,1,0-3.177,8.712,8.712,0,1,1,0,17.414Z" transform="translate(22.862 9.905)"/><path class="a" d="M47.089,49.6A1.589,1.589,0,0,1,45.5,48.007V14.189a1.589,1.589,0,0,1,3.177,0V48.007A1.589,1.589,0,0,1,47.089,49.6Z" transform="translate(25.602 3.641)"/></g></svg>