<svg xmlns="http://www.w3.org/2000/svg" width="94.914" height="85.466" viewBox="0 0 94.914 85.466"><defs><style>.a{fill:#4563e5;}</style></defs><g transform="translate(0 -2.783)"><g transform="translate(0 2.783)"><path class="a" d="M1.7,88.248H75.961a1.7,1.7,0,0,0,1.7-1.7V62.442H93.216a1.7,1.7,0,0,0,1.7-1.7V4.48a1.7,1.7,0,0,0-1.7-1.7H18.952a1.7,1.7,0,0,0-1.7,1.7V27.972a1.7,1.7,0,0,0,.124.618H1.7a1.7,1.7,0,0,0-1.7,1.7V86.551A1.7,1.7,0,0,0,1.7,88.248ZM20.65,27.972V6.178H91.519V59.047H77.659V30.287a1.7,1.7,0,0,0-1.7-1.7H20.526A1.7,1.7,0,0,0,20.65,27.972ZM3.395,31.984H74.264V84.854H3.395Z" transform="translate(0 -2.783)"/><path class="a" d="M32.624,23.5H6.447a1.7,1.7,0,0,0-1.7,1.7V51.374a1.7,1.7,0,0,0,1.7,1.7H32.624a1.7,1.7,0,0,0,1.7-1.7V25.2A1.7,1.7,0,0,0,32.624,23.5Zm-1.7,26.175H8.145V26.9H30.927Z" transform="translate(3.313 11.668)"/><path class="a" d="M52.2,33.407H26.026a1.7,1.7,0,0,0-1.7,1.7V57.935a1.7,1.7,0,0,0,1.7,1.7H52.2a1.7,1.7,0,0,0,1.7-1.7V35.1A1.7,1.7,0,0,0,52.2,33.407Zm-1.7,22.831H27.724V36.8H50.506Z" transform="translate(16.969 18.576)"/><path class="a" d="M32.624,42.438H6.447a1.7,1.7,0,0,0-1.7,1.7v6.021a1.7,1.7,0,0,0,1.7,1.7H32.624a1.7,1.7,0,0,0,1.7-1.7V44.135A1.7,1.7,0,0,0,32.624,42.438Zm-1.7,6.019H8.145V45.835H30.927Z" transform="translate(3.313 24.875)"/><path class="a" d="M52.2,26.492H26.026a1.7,1.7,0,0,0-1.7,1.7v6.019a1.7,1.7,0,0,0,1.7,1.7H52.2a1.7,1.7,0,0,0,1.7-1.7V28.189A1.7,1.7,0,0,0,52.2,26.492Zm-1.7,6.019H27.724V29.887H50.506Z" transform="translate(16.969 13.753)"/><path class="a" d="M44.325,21.595a1.7,1.7,0,0,0-2.4,0l-.842.842-.839-.842a1.7,1.7,0,0,0-2.4,2.4l.839.842-.839.842a1.7,1.7,0,1,0,2.4,2.4l.839-.842.842.842a1.7,1.7,0,1,0,2.4-2.4l-.842-.842.842-.842A1.7,1.7,0,0,0,44.325,21.595Z" transform="translate(26.047 9.99)"/><path class="a" d="M64.066,19V12.985a1.7,1.7,0,0,0-1.7-1.7H36.19a1.7,1.7,0,0,0-1.7,1.7V19a1.7,1.7,0,0,0,1.7,1.7H62.369A1.7,1.7,0,0,0,64.066,19Zm-3.395-1.7H37.888V14.683H60.671Z" transform="translate(24.058 3.149)"/><path class="a" d="M44.494,11.288H18.315a1.7,1.7,0,0,0-1.7,1.7V19a1.7,1.7,0,0,0,1.7,1.7H44.494a1.7,1.7,0,0,0,1.7-1.7V12.985A1.7,1.7,0,0,0,44.494,11.288Zm-1.7,6.019H20.013V14.683H42.8Z" transform="translate(11.59 3.149)"/><path class="a" d="M48.008,12.874a1.695,1.695,0,0,0,2.4,0l.842-.842.842.842a1.7,1.7,0,0,0,2.4-2.4l-.842-.842.842-.842a1.7,1.7,0,0,0-2.4-2.4l-.842.842-.842-.842a1.7,1.7,0,1,0-2.4,2.4l.84.842-.84.842A1.693,1.693,0,0,0,48.008,12.874Z" transform="translate(33.136 -0.615)"/></g></g></svg>