<svg xmlns="http://www.w3.org/2000/svg" width="91" height="91" viewBox="0 0 91 91"><defs><style>.a{fill:#4563e5;}</style></defs><g transform="translate(37.917 11.375)"><path class="a" d="M49.813,33.333a1.791,1.791,0,0,1-1.9-1.9V12.479a5.831,5.831,0,0,0-5.687-5.688H11.9A1.791,1.791,0,0,1,10,4.9,1.791,1.791,0,0,1,11.9,3H42.229a9.387,9.387,0,0,1,9.479,9.479V31.438A1.791,1.791,0,0,1,49.813,33.333Z" transform="translate(-10 -3)"/></g><g transform="translate(68.06 30.523)"><path class="a" d="M27.619,19.235a2.28,2.28,0,0,1-1.517-.379l-7.583-7.583a1.877,1.877,0,0,1,2.654-2.654l6.067,6.067,6.067-6.067a1.877,1.877,0,0,1,2.654,2.654l-7.583,7.583C28.756,19.235,28,19.235,27.619,19.235Z" transform="translate(-17.95 -8.05)"/></g><g transform="translate(11.375 49.292)"><path class="a" d="M35.229,43.333H12.479A9.387,9.387,0,0,1,3,33.854V14.9A1.791,1.791,0,0,1,4.9,13a1.791,1.791,0,0,1,1.9,1.9V33.854a5.831,5.831,0,0,0,5.688,5.688h22.75a1.9,1.9,0,1,1,0,3.792Z" transform="translate(-3 -13)"/></g><g transform="translate(3.981 49.481)"><path class="a" d="M17.923,24.235a2.28,2.28,0,0,1-1.517-.379L10.34,17.79,4.273,23.856a1.833,1.833,0,0,1-2.654,0,1.833,1.833,0,0,1,0-2.654L9.2,13.619a1.833,1.833,0,0,1,2.654,0L19.44,21.2a1.833,1.833,0,0,1,0,2.654A2.28,2.28,0,0,1,17.923,24.235Z" transform="translate(-1.05 -13.05)"/></g><g transform="translate(9.479)"><path class="a" d="M11.979,18.958A9.387,9.387,0,0,1,2.5,9.479,9.387,9.387,0,0,1,11.979,0a9.387,9.387,0,0,1,9.479,9.479A9.387,9.387,0,0,1,11.979,18.958Zm0-15.167A5.831,5.831,0,0,0,6.292,9.479a5.831,5.831,0,0,0,5.688,5.687,5.831,5.831,0,0,0,5.687-5.687A5.831,5.831,0,0,0,11.979,3.792Z" transform="translate(-2.5)"/></g><g transform="translate(0 22.75)"><path class="a" d="M36.021,21.167a1.791,1.791,0,0,1-1.9-1.9V15.479a5.831,5.831,0,0,0-5.687-5.688H9.479a5.831,5.831,0,0,0-5.688,5.688v3.792a1.791,1.791,0,0,1-1.9,1.9,1.791,1.791,0,0,1-1.9-1.9V15.479A9.387,9.387,0,0,1,9.479,6H28.438a9.387,9.387,0,0,1,9.479,9.479v3.792A1.791,1.791,0,0,1,36.021,21.167Z" transform="translate(0 -6)"/></g><g transform="translate(62.563 53.083)"><path class="a" d="M25.979,32.958a9.479,9.479,0,1,1,9.479-9.479A9.387,9.387,0,0,1,25.979,32.958Zm0-15.167a5.831,5.831,0,0,0-5.688,5.688,5.831,5.831,0,0,0,5.688,5.688,5.831,5.831,0,0,0,5.688-5.687A5.831,5.831,0,0,0,25.979,17.792Z" transform="translate(-16.5 -14)"/></g><g transform="translate(53.083 75.833)"><path class="a" d="M50.021,35.167a1.791,1.791,0,0,1-1.9-1.9V29.479a5.831,5.831,0,0,0-5.687-5.688H23.479a5.831,5.831,0,0,0-5.687,5.688v3.792a1.791,1.791,0,0,1-1.9,1.9,1.791,1.791,0,0,1-1.9-1.9V29.479A9.387,9.387,0,0,1,23.479,20H42.438a9.387,9.387,0,0,1,9.479,9.479v3.792A1.791,1.791,0,0,1,50.021,35.167Z" transform="translate(-14 -20)"/></g></svg>