<svg xmlns="http://www.w3.org/2000/svg" width="75.174" height="83.428" viewBox="0 0 75.174 83.428"><defs><style>.a{fill:#4563e5;}</style></defs><g transform="translate(0 8.254)"><path class="a" d="M153.883,37.1H180.3a4.63,4.63,0,0,0,4.493-5.751l-1.973-7.912a10.982,10.982,0,0,0-7.351-7.827,10.057,10.057,0,1,0-16.756,0,10.982,10.982,0,0,0-7.351,7.827l-1.973,7.912a4.63,4.63,0,0,0,4.493,5.751ZM167.092,5.014a5.043,5.043,0,1,1-5.043,5.044,5.049,5.049,0,0,1,5.043-5.044Zm-10.864,19.64a5.978,5.978,0,0,1,5.809-4.539h10.109a5.978,5.978,0,0,1,5.809,4.539l1.854,7.436H154.374Z" transform="translate(-129.505 -8.254)"/><path class="a" d="M75.118,113.232a6.716,6.716,0,0,0-13.432.015v10.7q-.208-.013-.418-.013a6.467,6.467,0,0,0-4.6,1.907l-5.774,5.773a.261.261,0,0,1-.213.074c-.04,0-.08-.008-.12-.01l-2.589-.155a7.089,7.089,0,0,0-5.788,2.047l-3.571,3.571a11.166,11.166,0,0,0-1.023,1.179,11.17,11.17,0,0,0-1.023-1.179l-3.571-3.571a7.088,7.088,0,0,0-5.787-2.047l-2.589.155q-.06,0-.12.01a.259.259,0,0,1-.213-.074l-5.774-5.774a6.467,6.467,0,0,0-4.6-1.907q-.21,0-.418.013v-10.7a6.716,6.716,0,0,0-13.433-.015L0,137.507a9.652,9.652,0,0,0,2.808,6.8l14.077,14.077v4.008a3.675,3.675,0,0,0,3.671,3.671H36.119a3.649,3.649,0,0,0,1.468-.307,3.649,3.649,0,0,0,1.468.307H54.618a3.675,3.675,0,0,0,3.671-3.671v-4.008l14.077-14.077a9.652,9.652,0,0,0,2.808-6.8Zm-5.867,27.961L54.529,155.915a2.2,2.2,0,0,0-.645,1.557v4.186h-14.1V144.931a6.563,6.563,0,0,1,1.935-4.672l3.571-3.571a2.7,2.7,0,0,1,2.235-.779c.04,0,.08.008.121.011l2.594.155a4.635,4.635,0,0,0,3.762-1.343l5.774-5.774a2.105,2.105,0,0,1,2.978,2.978l-8.227,8.227a2.2,2.2,0,0,0,3.115,3.115l8.227-8.227a6.511,6.511,0,0,0,.219-8.977V113.248a2.311,2.311,0,0,1,2.611-2.292,2.319,2.319,0,0,1,2.013,2.287l.055,24.275A5.218,5.218,0,0,1,69.251,141.194Zm-63.329,0A5.218,5.218,0,0,1,4.4,137.517l.055-24.275a2.318,2.318,0,0,1,2.013-2.287,2.311,2.311,0,0,1,2.61,2.292v12.826A6.511,6.511,0,0,0,9.3,135.05l8.227,8.227a2.2,2.2,0,1,0,3.115-3.115l-8.228-8.227a2.105,2.105,0,0,1,2.978-2.978l5.774,5.774a4.634,4.634,0,0,0,3.761,1.343l2.594-.155q.06,0,.121-.011a2.708,2.708,0,0,1,2.235.779l3.571,3.571a6.563,6.563,0,0,1,1.935,4.672v16.728h-14.1v-4.186a2.2,2.2,0,0,0-.645-1.557Z" transform="translate(0 -90.89)"/></g></svg>